<svg id="Symbol_5_1" data-name="Symbol 5 – 1" xmlns="http://www.w3.org/2000/svg" viewBox="24 -509 485 150.64">
  <defs>
    <style>
      .cls-1 {
        fill: #fafafa;
      }

      .cls-2, .cls-4 {
        fill: #82bb1d;
      }

      .cls-3 {
        fill: #fff;
      }

      .cls-3, .cls-4 {
        font-size: 68px;
        font-family: TrebuchetMS, Trebuchet MS;
      }
    </style>
  </defs>
  <g id="Asset_2" data-name="Asset 2" transform="translate(348.782 -509)">
    <g id="Layer_1" data-name="Layer 1" transform="translate(0 0)">
      <path id="Path_11" data-name="Path 11" class="cls-1" d="M141.535,318.319a7.19,7.19,0,0,0,2.034,1.607c3.35,2.322,6.666,4.692,10.017,7.014,2.122,1.47,4.3,2.849,6.325,4.47a3.977,3.977,0,0,1,.048,5.931,47.09,47.09,0,0,1-8.045,5.4c-3.231,1.911-6.362,4.005-9.649,5.814-2.407,1.325-4.817,2.678-7.156,4.094-1.892,1.139-4.025,1.863-5.743,3.319a10.726,10.726,0,0,1-2.011.988c-3.376,1.766-6.632,3.741-10.039,5.464-3.219,1.63-6.373,3.393-9.595,5.034-3.176,1.618-6.419,3.134-9.507,4.886a34.724,34.724,0,0,1-8.136,3.154,11.706,11.706,0,0,1-6.9-.552,75.691,75.691,0,0,1-11.071-4.932c-.407-.219-.889-.3-1.313-.5-2.849-1.285-5.723-2.516-8.527-3.895-3.37-1.658-6.789-3.216-10.153-4.875-3.2-1.581-6.421-3.134-9.578-4.815-3.513-1.863-7.122-3.518-10.572-5.524-2.293-1.339-4.843-2.265-7.1-3.647-2.325-1.424-4.9-2.37-7.037-4.134a4.665,4.665,0,0,1,.8-7.863c2.043-1.14,3.843-2.741,5.9-3.866,1.929-1.057,3.641-2.416,5.521-3.53,2.014-1.191,3.92-2.564,5.889-3.84,2.111-1.368,4.322-2.6,6.327-4.105,1.4-1.051,3.043-1.692,4.33-2.94a12.622,12.622,0,0,1,2.9-1.627c.02.131.094.285.054.393-1.479,3.809-.781,6.954,2.615,8.895,3.441,1.963,7.176,3.45,11.3,1.809.311-.122.718-.367.991.117.108.433-.225.57-.5.738a27.165,27.165,0,0,0-2.929,1.709c-2.726,2.049-5.76,3.635-8.626,5.467-2.413,1.547-4.866,3.077-7.427,4.407-.644.336-1.82.755-1.772,1.772a1.926,1.926,0,0,0,1.279,1.55c2.467.9,4.6,2.442,6.94,3.6,4.054,1.994,7.977,4.245,11.982,6.373,2.7,1.424,5.413,2.849,8.148,4.2,4.037,1.995,8.057,4.054,12.136,5.983a16.8,16.8,0,0,1,2.436,1.094c1.561,1.089,3.082,1.763,4.877.544a13.678,13.678,0,0,1,1.855-1.111c2.815-1.322,5.493-2.886,8.213-4.384,3.208-1.766,6.447-3.484,9.666-5.234,2.279-1.242,4.473-2.68,6.854-3.749a4.837,4.837,0,0,0,1.159-.519c2.775-2.279,6.131-3.607,9.142-5.51a60.665,60.665,0,0,1,6.641-3.857,9.688,9.688,0,0,0,1.638-1.114c.667-.5.59-.934-.063-1.456a42.2,42.2,0,0,0-5.128-3.3c-2.279-1.345-4.373-3.031-6.8-4.139-.02-.587.419-.812.84-1.026,3.176-1.615,6.128-3.612,9.19-5.413.644-.379,1.336-.686,1.943-1.12A54.711,54.711,0,0,1,141.535,318.319Z" transform="translate(-11.462 -225.161)"/>
      <path id="Path_12" data-name="Path 12" class="cls-2" d="M101.387,11.581a11.618,11.618,0,0,1-4.863,9.789c-2.883,2.279-5.889,4.43-8.8,6.692-1.789,1.39-3.7,2.706-5.521,4.074-1.353,1.02-2.766,2.054-4.1,3.134-1.732,1.4-3.641,2.644-5.413,4.031-1.459,1.14-3.048,2.085-4.464,3.308s-3.051,2.134-4.527,3.293c-2.231,1.758-4.587,3.356-6.883,5.034-3.268,2.393-6.547,4.8-9.82,7.185s-6.49,4.872-9.857,7.122c-2.994,1.994-5.829,4.2-8.772,6.268-2.578,1.8-5.082,3.766-7.666,5.572-3.384,2.37-7.273,3.524-11.361,2.339a14.854,14.854,0,0,1-7.612-4.5C-.474,72.3-.657,67.3,1.625,64.752A48.119,48.119,0,0,1,7.143,60.04c2.652-2.194,5.413-4.273,8.088-6.413,2.253-1.8,4.592-3.5,6.86-5.29,2.675-2.108,5.222-4.393,7.994-6.362,2.889-2.054,5.627-4.307,8.424-6.464,2.279-1.746,4.558-3.521,6.76-5.387,1.664-1.424,3.481-2.7,5.213-4.062,1.453-1.14,2.92-2.279,4.379-3.419,1.735-1.342,3.393-2.792,5.191-4.062a49.024,49.024,0,0,0,3.86-3.134c1.14-.983,2.385-1.783,3.524-2.772,2.635-2.279,5.581-4.216,8.3-6.419A38.406,38.406,0,0,1,81.28,2.043,13.441,13.441,0,0,1,92.143.573C97.222,2.131,101.612,6.364,101.387,11.581Z" transform="translate(0.006 -0.004)"/>
      <path id="Path_13" data-name="Path 13" class="cls-2" d="M146.728,185.725c-.285-.484-.681-.242-.991-.117-4.128,1.641-7.863.154-11.3-1.809-3.4-1.937-4.094-5.082-2.615-8.894.043-.108-.034-.262-.054-.393l.037.06c.533.225.709-.145.88-.527.815-1.547,2.436-2.225,3.755-3.071,3.943-2.533,7.735-5.29,11.68-7.792,3.04-1.923,5.983-4.006,8.928-6.037,2.743-1.889,5.49-3.806,8.21-5.74,1.895-1.348,3.894-2.6,5.763-3.971,1.45-1.068,2.988-2.026,4.419-3.134,1.618-1.256,3.35-2.421,5.054-3.592q3.336-2.293,6.618-4.664c3.179-2.279,6.29-4.672,9.524-6.883,3.045-2.083,5.968-4.33,8.977-6.458,2.348-1.661,4.655-3.245,7.51-3.795a10.893,10.893,0,0,1,7.071.621,11.812,11.812,0,0,1,4.325,3.419,8.4,8.4,0,0,1,.855,8.786,9.749,9.749,0,0,1-2.989,3.755c-2.618,2.117-5.453,3.931-8.2,5.863-3.7,2.6-7.407,5.128-11.111,7.72-3.325,2.322-6.709,4.558-10.045,6.854-.091.063-.088.259-.125.393-1.291.191-2.157,1.168-3.177,1.815-3.937,2.5-7.766,5.159-11.68,7.692-1.083.7-2.464,1.168-3.211,2.384-1.635.977-3.339,1.855-4.889,2.952-2.872,2.037-5.92,3.789-8.832,5.74-1.994,1.322-4.045,2.518-6.02,3.846-2.538,1.709-5.054,3.45-7.752,4.9a.41.41,0,0,0-.533-.285c-.217.06-.285.2-.12.387Z" transform="translate(-93.738 -84.819)"/>
      <path id="Path_14" data-name="Path 14" class="cls-2" d="M308.551,245.2a54.677,54.677,0,0,0-5.37,3.239c-.607.43-1.3.741-1.943,1.12-3.065,1.8-6.014,3.8-9.19,5.413-.422.214-.855.439-.838,1.026a10.363,10.363,0,0,0-3.8,1.832c-2.9,2.023-6.08,3.57-9.068,5.438a66.759,66.759,0,0,1-6.589,3.721,6.374,6.374,0,0,0-1.632.809,14.806,14.806,0,0,1-5.507,3c-4.843,1.607-9.6,1.57-13.6-2.219-2.037-1.932-1.752-5.535-.105-7.333a20.82,20.82,0,0,1,4.892-3.393c3.02-1.846,6.085-3.627,9.1-5.487,3.453-2.134,6.943-4.208,10.416-6.3,2.054-1.279,4.119-2.544,6.162-3.84q3.946-2.5,7.863-5.045c1.316-.855,2.6-1.766,3.891-2.652,1.746-1.3,3.684-2.316,5.447-3.6,1.963-1.424,4.108-2.624,6.128-3.988,2.687-1.815,5.322-3.7,7.994-5.544,2.162-1.484,4.362-2.914,6.524-4.4a38.683,38.683,0,0,1,4.686-3.259,10.523,10.523,0,0,1,11.837,1.6,8.035,8.035,0,0,1,2.476,8.547,7.169,7.169,0,0,1-2.564,3.45,22.529,22.529,0,0,1-3.418,2.45c-2.986,1.741-5.766,3.8-8.649,5.7s-5.863,3.78-8.749,5.738C312.9,242.64,310.728,243.953,308.551,245.2Z" transform="translate(-178.478 -152.047)"/>
      <path id="Path_15" data-name="Path 15" class="cls-1" d="M318.369,261.992c-1.3.886-2.564,1.8-3.892,2.652q-3.914,2.55-7.863,5.045c-2.045,1.3-4.108,2.564-6.162,3.84.109-.442-.256-.553-.521-.727q-4.128-2.687-8.262-5.37-3.473-2.262-6.94-4.533c.746-1.214,2.128-1.681,3.211-2.384,3.912-2.538,7.738-5.2,11.68-7.692,1.02-.647,1.886-1.624,3.177-1.815,3.53,2.365,6.9,4.966,10.413,7.356,1.279.869,2.849,1.533,3.823,2.892C317.3,261.625,317.914,261.753,318.369,261.992Z" transform="translate(-203.612 -179.502)"/>
    </g>
  </g>
  <text id="berau" class="cls-3" transform="translate(24 -409)"><tspan x="0" y="0">berau</tspan></text>
  <text id="coal" class="cls-4" transform="translate(197.391 -409)"><tspan x="0" y="0">coal</tspan></text>
</svg>
