<svg xmlns="http://www.w3.org/2000/svg" viewBox="0 0 651.43 776"><defs><style>.cls-1{fill:#fdc906;}.cls-2{fill:#2e3190;}.cls-3{fill:#fefefe;}</style></defs><title>dishub</title><g id="Layer_2" data-name="Layer 2"><g id="Layer_1-2" data-name="Layer 1"><path class="cls-1" d="M320.28,776c-8.31-20.92-17.43-41.5-24.74-62.83-5-14.51-12.82-27.63-22.44-39.63a137.66,137.66,0,0,0-38.31-32.63,90.36,90.36,0,0,0-19.36-8.35c-9.76-3-19-7.4-28.29-11.68a311.86,311.86,0,0,1-46.3-26.54,302.71,302.71,0,0,1-30-23.47c-7.52-6.72-15-13.43-21.86-20.85-7.11-7.74-14-15.63-20.49-24a387.71,387.71,0,0,1-25.22-37.2c-3.69-6.13-6.75-12.65-10-19-6.25-12.31-11.2-25.15-15.88-38.14-4-11-6.89-22.25-9.75-33.52-2.23-8.77-3.33-17.83-4.86-26.77C-1.08,348.92.15,326.27.33,303.69c.07-8.63,1.49-17.27,2.93-25.87,1.73-10.3,3.29-20.63,6-30.7,3.11-11.45,6.36-22.84,10.54-34,4.07-10.88,8.57-21.52,13.63-31.94a266.17,266.17,0,0,1,17.94-32c7.16-10.71,14.47-21.35,23-31.13,6.13-7.05,12.31-14,18.82-20.75a327.43,327.43,0,0,1,95.06-67.47,295.33,295.33,0,0,1,32.5-13.07,337.89,337.89,0,0,1,35.82-10c9.56-2.06,19.26-3.79,29-5,4.66-.57,9.43-.47,14-1.84h51.73a.93.93,0,0,0,1,.63c13.5.43,26.66,3.15,39.84,5.8a308.41,308.41,0,0,1,63.4,20c11,4.81,21.62,10.17,32.06,15.93,7.45,4.11,14.5,9,21.58,13.7a308.92,308.92,0,0,1,32.38,25.09c6.55,5.77,13,11.62,19,17.93a341.12,341.12,0,0,1,31.7,38.26A295,295,0,0,1,614.71,174,351.07,351.07,0,0,1,633.3,216.6a324.36,324.36,0,0,1,10.53,36.32c2.07,9.24,3.47,18.67,5.1,28,3.66,21,1.95,42.12,2.5,63.19.07,2.54-.61,3.51-3.18,3.16a31.76,31.76,0,0,0-4.2,0c-6.68,0-6.66,0-6.92,6.64-.06,1.71-.5,3.72-.07,5s3.09,0,4.47.71c2,1,4.21.49,6.29.87,2.38.44,2.48,1.59,2.23,3.24-.82,5.54-1.51,11.11-2.67,16.58-1.73,8.14-2.77,16.41-5.05,24.44-1.38,4.85-2.65,9.74-4.07,14.58-.33,1.12-.83,1.92-2.56,1.3-3.66-1.31-7.48-2.17-11.27-3.22a129.85,129.85,0,0,1-7.82,22.47c-.85,1.92-.7,4.11-2,5.89-1,1.34-.39,2.34,1.14,3,2.52,1.07,4.86,2.57,7.56,3.23,2.05.5,2.65,1.32,1.73,3.61a256.68,256.68,0,0,1-11.45,24c-4.61,8.75-10.11,17-15.21,25.53-1.18,2-2.33,2.51-4.24.6-2.4-2.4-6.21-2.84-8.27-5.9-3.75,3.91-6,8.68-9.31,12.66s-6.25,8-9.53,11.9c-1.36,1.6-1.7,2.71.13,4.1,2.19,1.66,4.28,3.47,6.44,5.18,1.47,1.17,2,2.09.47,3.9a329.69,329.69,0,0,1-24.93,26c-6.09,5.79-12.67,11-19,16.55-.67.58-1,.75-1.65-.24-1.83-2.6-4-4.92-5.92-7.48-1.23-1.68-2.43-2-4-.63-7.28,6.33-15.57,11.26-23.38,16.86-1.83,1.31-1.43,2.47-.33,4,1.51,2,2.85,4.19,4.34,6.23,1.39,1.89,1,3.3-1,4.22-5.6,2.53-10.6,6.13-16,9.09-8.21,4.55-16.79,8.31-25.2,12.42-3.27,1.6-6.93,2.5-10.18,4.21-1.81.95-1.84-.51-2.13-1.24-1-2.54-1.91-5.12-2.66-7.75s-1.92-2.91-4.37-2.09c-7,2.35-13.67,5.53-20.84,7.27-2.35.57-5.81.47-6.63,2.14s1.07,4.45,1.76,6.75c1.86,6.13,1.85,6.12-4.74,7.69-8,1.9-15.88,4.47-24,5.51-7.35,1-14.59,2.85-22.06,2.9-1.47,0-2.93.54-4.4.59-4.22.15-4.51-.2-4.73-4.57-.08-1.59-.4-3.29-.31-4.74.27-4.56-2.78-4-5.18-3.5a53.1,53.1,0,0,1-11.85.48c-2.63-.08-3.42.54-3.41,3.31.12,24.46.07,48.93.07,73.39q0,30.55,0,61.11ZM112,416.45l-18.24-2.74a13.15,13.15,0,0,0,.22,1.54,242.26,242.26,0,0,0,77.79,119.34c29.62,24.47,63.06,41.27,100.56,49.81a233.74,233.74,0,0,0,45.34,6.08c2.26.06,3.31-.28,3.17-2.91-.24-4.62-.08-9.26-.09-13.89.05-16.48.18-33,.12-49.45a74,74,0,0,1,2-18.5c6.95-27.39,23.47-46.41,49.94-56.62,9.39-3.62,19.27-4.91,29.17-6,10.48-1.13,21-2,31.56-.94,2.38.24,4.81,0,7.85,0-9.49-9.31-20.1-13.89-32.88-13-1.75.12-3.6.87-4.07-2a32.29,32.29,0,0,0-9.61-17.83c-5.69-5.59-12.22-9.46-20.79-9.27-13.68.31-27.37.07-41.06.1-8.26,0-12.37-4.91-12.2-12,.3-12.6,0-25.22.15-37.82,0-2.85-.56-3.78-3.66-3.78q-145.32.14-290.64.1c-1,0-2.12-.39-3.24.5a146.83,146.83,0,0,0,15.28,18.19A160.23,160.23,0,0,0,66.6,387.82a154,154,0,0,0,47.27,20.31c3.53.85,3.54.79,3.1-2.86,0-.09.29-.22.57-.42,4.38,6.81,10.26,12.13,17.54,16.82-4.44.16-7.56-1.47-10.54-3.41A6,6,0,0,0,122,417,52.65,52.65,0,0,0,112,416.45Zm344.51,41.87c-5.43-5.92-12.67-5.88-19.55-6.22a207.65,207.65,0,0,0-42.47,1.8c-10.25,1.61-20.2,4-29.14,9.45C343,477,331.31,497.12,330.73,523.24c-.49,21.65-.08,43.32-.14,65,0,2,.58,2.71,2.59,2.47,4.91-.6,9.87-.33,14.82-.79a272.71,272.71,0,0,0,36.22-5.55,265.58,265.58,0,0,0,145.89-89.76,258.91,258.91,0,0,0,33.62-52.08,270.14,270.14,0,0,0,17.35-45.79,305.24,305.24,0,0,0,8.8-46.66c.32-2.76-.54-3.43-3.25-3.42-48.28.08-96.57,0-144.85.14a175.06,175.06,0,0,0-28.26,2.31c-28.49,4.77-53.58,16.76-75.88,34.9-2.27,1.85-4.35,3.94-7.25,6.58h4.07q21.66,0,43.33,0a15.49,15.49,0,0,1,4.45.47c14.5,4.23,24.36,13.5,29.83,27.46.77,2,1.67,2.65,3.72,2.48a36.09,36.09,0,0,1,24.28,6.69C450.66,435.08,456.13,445.37,456.55,458.32Zm97.62-132.4q36,0,72.1,0c2,0,3.37-.08,3-2.74-1-6.83-.46-13.75-1-20.63a305.24,305.24,0,0,0-5.42-38.51,296.22,296.22,0,0,0-18.14-57.73,325.18,325.18,0,0,0-25.44-47.53c-1.32-2.06-2.35-1.86-4.1-.9a501.78,501.78,0,0,1-63,28.92q-19.18,7.29-38.89,13c-1.62.47-2.95,1.07-2.29,3.26,3.17,10.46,5,21.22,6.84,32a260.77,260.77,0,0,1,3.31,28.74,316.19,316.19,0,0,1,.16,39.38c-.43,6.44-1,12.84-1.89,19.22-.32,2.41-.09,3.6,3,3.58C506.32,325.86,530.25,325.92,554.18,325.92Zm-456.89,0c24,0,48.05,0,72.08.07,2.65,0,3.06-.93,2.8-3.15-.67-5.86-1.43-11.72-1.81-17.6a328.58,328.58,0,0,1,1.4-56.07,303.94,303.94,0,0,1,8.52-45.38c.65-2.47.15-3.33-2.23-4A521.08,521.08,0,0,1,124.86,181a508.57,508.57,0,0,1-48.35-23.09c-2.05-1.11-3.11-.93-4.29,1.14-2.7,4.75-5.7,9.33-8.47,14a295.41,295.41,0,0,0-32.85,81.81,298.41,298.41,0,0,0-7,41.77c-.79,8.69-.9,17.4-1.5,26.09-.2,2.84.69,3.18,3.11,3.17C49.45,325.89,73.37,325.92,97.29,325.92Zm302.68,0c22.19,0,44.38,0,66.57.05,2.3,0,3.09-.52,3.31-2.94.74-8.14,1.35-16.28,1.88-24.44,1.17-18.34-.2-36.56-2.35-54.72-1.51-12.77-4.33-25.32-7.38-37.81-.56-2.28-1.36-2.77-3.5-2.19-5.67,1.53-11.33,3.13-17.08,4.32C428,211,414.56,213.63,401,215.55q-15.63,2.2-31.33,3.68c-12,1.13-24.07,1.12-36.11,1.68-2.41.11-3,.82-3,3.18q.12,49.28,0,98.56c0,2.8.91,3.33,3.48,3.32C356,325.88,378,325.92,400,325.92Zm-148.47,0q33.29,0,66.57,0c1.73,0,3,.13,2.95-2.41q-.14-50.09,0-100.18c0-1.84-.6-2.28-2.34-2.46-7.94-.82-15.92-.41-23.88-.86-16.54-.94-32.93-2.79-49.29-5.29A491.78,491.78,0,0,1,193.65,204c-2.71-.72-3.44-.14-4.09,2.44A354.9,354.9,0,0,0,182,245.55a283.48,283.48,0,0,0-2.41,40.86,301.6,301.6,0,0,0,2.13,36.07c.37,2.82,1.1,3.51,3.84,3.5C207.55,325.87,229.52,325.92,251.5,325.92Zm68.85,389.47.61-.21q0-52.68,0-105.37c0-2.26-.85-2.61-2.83-2.63a232.45,232.45,0,0,1-49.37-6.29A258.22,258.22,0,0,1,75.55,411,4.81,4.81,0,0,0,72,407.1a186,186,0,0,1-37.21-17.24c-2-1.18-3.88-2.41-6.24-3.87,1,4.87,1.81,9.19,2.9,13.42A307.19,307.19,0,0,0,82.29,506.67a298.69,298.69,0,0,0,37.7,42,302.94,302.94,0,0,0,89.26,57.2c8.66,3.62,17.85,6,26.39,9.88A148.15,148.15,0,0,1,278,645.18a159.21,159.21,0,0,1,39.29,61.24C318.38,709.39,319.34,712.4,320.34,715.39ZM330.62,150.9c0,19.07,0,38.15,0,57.22,0,2.41.41,3.49,3.17,3.31,9.45-.6,18.93-.79,28.37-1.47,16.17-1.17,32.28-2.91,48.29-5.61,15.41-2.59,30.66-6,45.79-9.82,1.61-.41,2.14-1.14,1.55-3a309.57,309.57,0,0,0-15.54-39.7c-11.54-24-25.44-46.46-42.71-66.8-2-2.31-3.46-3.3-6.68-2.53-19.43,4.69-39.1,7.89-59.16,8-2.37,0-3.1.75-3.09,3.17C330.67,112.75,330.62,131.82,330.62,150.9ZM321,151c0-19-.08-37.92.08-56.88,0-3.12-1-3.79-3.82-3.68-7.87.3-15.7-.64-23.49-1.57a269.31,269.31,0,0,1-36.27-6.72,3.68,3.68,0,0,0-4.21,1.37,335.27,335.27,0,0,0-24.18,33,308.15,308.15,0,0,0-35,74.74c-.66,2.12-.35,2.79,1.64,3.32a516.31,516.31,0,0,0,72.23,13.51c16.55,1.95,33.22,2.61,49.88,3.3,2.57.11,3.25-.59,3.24-3.17C320.9,189.19,321,170.12,321,151ZM183.07,191.17c1.16-.2,1.2-1.4,1.54-2.38,2.06-6,4-11.94,6.24-17.85A316.59,316.59,0,0,1,242.6,81.4c1.68-2.06,2-2.84-.87-3.71A249.53,249.53,0,0,1,192,56.41a5.58,5.58,0,0,0-6.1,0,316.26,316.26,0,0,0-61.1,42.18A305.59,305.59,0,0,0,81,146.71c-.92,1.26-1.47,1.91.51,3A537.81,537.81,0,0,0,181,190.63C181.61,190.82,182.24,191,183.07,191.17ZM462.82,54.94c-.65.31-1.24.54-1.8.85a268.31,268.31,0,0,1-51.22,22c-2.47.76-2.56,1.46-1,3.33a308.18,308.18,0,0,1,26.24,37,313.37,313.37,0,0,1,31.83,70.23c.86,2.75,1.83,2.83,4.21,2.12A533.76,533.76,0,0,0,570,149.8c1.61-.86,2-1.36.84-3a302,302,0,0,0-29.27-34.36A296,296,0,0,0,515.2,88.66a319.72,319.72,0,0,0-50.68-32.92C464,55.45,463.38,55.2,462.82,54.94ZM200.58,49A269.05,269.05,0,0,0,326,80.12c41.21.15,107.16-16.44,124.46-31.31C367.18,13.25,284.32,13.38,200.58,49ZM379.84,347.16c-15.61,0-31.23,0-46.84,0-1.58,0-2,.5-1.95,2,.09,6,0,12.06,0,18.09,0,2.74,0,5.48,0,9.07A187.77,187.77,0,0,1,379.84,347.16Z"/><path class="cls-2" d="M112,416.45a52.65,52.65,0,0,1,10,.54,6,6,0,0,1,2.54,1.25c3,1.95,6.1,3.57,10.54,3.41-7.29-4.69-13.16-10-17.54-16.82-.28.2-.58.33-.57.42.44,3.66.43,3.71-3.1,2.86A154,154,0,0,1,66.6,387.82a160.23,160.23,0,0,1-27.85-22.41,146.83,146.83,0,0,1-15.28-18.19c1.12-.89,2.23-.5,3.24-.5q145.32,0,290.64-.1c3.09,0,3.69.93,3.66,3.78-.15,12.61.15,25.22-.15,37.82-.17,7.13,3.93,12.06,12.2,12,13.69,0,27.38.21,41.06-.1,8.57-.19,15.1,3.68,20.79,9.27a32.29,32.29,0,0,1,9.61,17.83c.48,2.84,2.33,2.1,4.07,2,12.77-.89,23.39,3.68,32.88,13-3,0-5.47.2-7.85,0-10.57-1.06-21.07-.19-31.56.94-9.9,1.06-19.78,2.35-29.17,6-26.47,10.21-43,29.23-49.94,56.62a74,74,0,0,0-2,18.5c.05,16.48-.07,33-.12,49.45a217.57,217.57,0,0,1-54.38-8.07,220.29,220.29,0,0,1-50.54-20.84,223.43,223.43,0,0,1-81.76-79.39A210.5,210.5,0,0,1,112,416.45ZM373.3,421.4a8.62,8.62,0,0,0,8.54,8.63,9,9,0,0,0,8.76-8.87c.05-4.38-4.39-8.65-8.87-8.53A8.62,8.62,0,0,0,373.3,421.4Z"/><path class="cls-2" d="M456.55,458.32c-.43-13-5.9-23.24-16.49-30.65A36.09,36.09,0,0,0,415.79,421c-2.05.17-2.94-.5-3.72-2.48-5.47-14-15.33-23.23-29.83-27.46a15.49,15.49,0,0,0-4.45-.47q-21.66,0-43.33,0h-4.07c2.9-2.64,5-4.73,7.25-6.58,22.29-18.14,47.39-30.13,75.88-34.9a175.06,175.06,0,0,1,28.26-2.31c48.28-.18,96.57-.06,144.85-.14,2.71,0,3.58.67,3.25,3.42a305.24,305.24,0,0,1-8.8,46.66,270.14,270.14,0,0,1-17.35,45.79,258.91,258.91,0,0,1-33.62,52.08,265.58,265.58,0,0,1-145.89,89.76A272.71,272.71,0,0,1,348,589.9c-4.95.46-9.9.19-14.82.79-2,.25-2.6-.47-2.59-2.47.06-21.66-.35-43.33.14-65,.59-26.12,12.23-46.25,34.67-59.89,8.94-5.43,18.89-7.84,29.14-9.45A207.65,207.65,0,0,1,437,452.1C443.89,452.44,451.13,452.4,456.55,458.32Z"/><path class="cls-2" d="M554.18,325.92c-23.93,0-47.85-.06-71.78.07-3,0-3.27-1.17-3-3.58.85-6.38,1.46-12.79,1.89-19.22a316.19,316.19,0,0,0-.16-39.38,260.77,260.77,0,0,0-3.31-28.74c-1.83-10.75-3.66-21.5-6.84-32-.66-2.19.67-2.79,2.29-3.26q19.71-5.73,38.89-13a501.78,501.78,0,0,0,63-28.92c1.75-1,2.78-1.17,4.1.9a325.18,325.18,0,0,1,25.44,47.53,296.22,296.22,0,0,1,18.14,57.73,305.24,305.24,0,0,1,5.42,38.51c.5,6.88-.08,13.8,1,20.63.4,2.65-1,2.74-3,2.74Q590.23,325.89,554.18,325.92Z"/><path class="cls-2" d="M97.29,325.92c-23.92,0-47.84,0-71.76,0-2.42,0-3.31-.33-3.11-3.17.6-8.69.7-17.39,1.5-26.09a298.41,298.41,0,0,1,7-41.77,295.41,295.41,0,0,1,32.85-81.81c2.77-4.71,5.76-9.3,8.47-14,1.18-2.07,2.24-2.25,4.29-1.14A508.57,508.57,0,0,0,124.86,181,521.08,521.08,0,0,0,178,199.76c2.39.7,2.89,1.55,2.23,4a303.94,303.94,0,0,0-8.52,45.38,328.58,328.58,0,0,0-1.4,56.07c.38,5.88,1.14,11.74,1.81,17.6.25,2.23-.16,3.16-2.8,3.15C145.34,325.87,121.31,325.92,97.29,325.92Z"/><path class="cls-2" d="M400,325.92c-22,0-43.95,0-65.92.05-2.58,0-3.49-.52-3.48-3.32q.15-49.28,0-98.56c0-2.36.56-3.07,3-3.18,12-.57,24.1-.55,36.11-1.68q15.71-1.48,31.33-3.68c13.59-1.92,27-4.57,40.43-7.36,5.74-1.19,11.41-2.79,17.08-4.32,2.14-.58,2.94-.08,3.5,2.19,3.05,12.49,5.87,25,7.38,37.81,2.15,18.17,3.52,36.38,2.35,54.72-.52,8.16-1.13,16.3-1.88,24.44-.22,2.42-1,2.95-3.31,2.94C444.34,325.88,422.15,325.92,400,325.92Z"/><path class="cls-2" d="M251.5,325.92c-22,0-44,0-65.93.06-2.74,0-3.47-.68-3.84-3.5a301.6,301.6,0,0,1-2.13-36.07A283.48,283.48,0,0,1,182,245.55a354.9,354.9,0,0,1,7.54-39.06c.65-2.58,1.39-3.16,4.09-2.44a491.78,491.78,0,0,0,51.83,10.7c16.36,2.5,32.76,4.35,49.29,5.29,8,.45,15.93,0,23.88.86,1.74.18,2.35.62,2.34,2.46q-.08,50.09,0,100.18c0,2.54-1.22,2.41-2.95,2.41Q284.78,325.9,251.5,325.92Z"/><path class="cls-2" d="M320.34,715.39c-1-3-2-6-3-9A159.21,159.21,0,0,0,278,645.18a148.15,148.15,0,0,0-42.38-29.48c-8.54-3.85-17.73-6.26-26.39-9.88A302.94,302.94,0,0,1,120,548.62a298.69,298.69,0,0,1-37.7-42A307.19,307.19,0,0,1,31.45,399.41c-1.09-4.23-1.86-8.55-2.9-13.42,2.36,1.47,4.29,2.69,6.24,3.87A186,186,0,0,0,72,407.1,4.81,4.81,0,0,1,75.55,411,258.43,258.43,0,0,0,268.8,600.89a232.45,232.45,0,0,0,49.37,6.29c2,0,2.83.37,2.83,2.63q-.1,52.68,0,105.37Z"/><path class="cls-2" d="M330.62,150.9c0-19.07,0-38.15-.05-57.22,0-2.42.72-3.16,3.09-3.17,20.06-.09,39.73-3.3,59.16-8,3.22-.78,4.72.22,6.68,2.53,17.26,20.34,31.17,42.81,42.71,66.8a309.57,309.57,0,0,1,15.54,39.7c.59,1.84.06,2.57-1.55,3-15.14,3.87-30.38,7.23-45.79,9.82-16,2.69-32.11,4.44-48.29,5.61-9.44.68-18.92.87-28.37,1.47-2.76.18-3.18-.9-3.17-3.31C330.66,189,330.62,170,330.62,150.9Z"/><path class="cls-2" d="M321,151c0,19.07-.05,38.14.06,57.2,0,2.58-.67,3.27-3.24,3.17-16.65-.68-33.33-1.35-49.88-3.3a516.31,516.31,0,0,1-72.23-13.51c-2-.53-2.29-1.2-1.64-3.32a308.15,308.15,0,0,1,35-74.74,335.27,335.27,0,0,1,24.18-33,3.68,3.68,0,0,1,4.21-1.37,269.31,269.31,0,0,0,36.27,6.72c7.79.93,15.61,1.87,23.49,1.57,2.82-.11,3.84.56,3.82,3.68C320.87,113.13,321,132.09,321,151Z"/><path class="cls-2" d="M183.07,191.17c-.83-.21-1.46-.35-2.07-.54a537.81,537.81,0,0,1-99.53-40.94c-2-1.07-1.43-1.72-.51-3a305.59,305.59,0,0,1,43.8-48.15,316.26,316.26,0,0,1,61.1-42.18,5.58,5.58,0,0,1,6.1,0,249.53,249.53,0,0,0,49.77,21.28c2.86.87,2.55,1.65.87,3.71a316.59,316.59,0,0,0-51.75,89.54c-2.22,5.91-4.18,11.89-6.24,17.85C184.26,189.76,184.23,191,183.07,191.17Z"/><path class="cls-2" d="M462.82,54.94c.56.26,1.15.51,1.71.8A319.72,319.72,0,0,1,515.2,88.66a296,296,0,0,1,26.37,23.76,302,302,0,0,1,29.27,34.36c1.21,1.65.77,2.15-.84,3a533.76,533.76,0,0,1-98.93,40.68c-2.38.71-3.35.62-4.21-2.12A313.37,313.37,0,0,0,435,118.12a308.18,308.18,0,0,0-26.24-37c-1.56-1.86-1.47-2.56,1-3.33a268.31,268.31,0,0,0,51.22-22C461.58,55.48,462.17,55.24,462.82,54.94Z"/><path class="cls-2" d="M200.58,49c83.74-35.65,166.59-35.78,249.83-.22C433.12,63.68,367.16,80.27,326,80.12A269.05,269.05,0,0,1,200.58,49Z"/><path class="cls-3" d="M112,416.45a210.5,210.5,0,0,0,22.05,48.93,223.43,223.43,0,0,0,81.76,79.39,220.29,220.29,0,0,0,50.54,20.84,217.57,217.57,0,0,0,54.38,8.07c0,4.63-.14,9.27.09,13.89.13,2.63-.92,3-3.17,2.91a233.74,233.74,0,0,1-45.34-6.08c-37.49-8.54-70.93-25.34-100.56-49.81A242.26,242.26,0,0,1,94,415.25a13.15,13.15,0,0,1-.22-1.54Z"/><path class="cls-3" d="M379.84,347.16a187.77,187.77,0,0,0-48.74,29.17c0-3.59,0-6.33,0-9.07,0-6,.05-12.06,0-18.09,0-1.53.36-2,1.95-2C348.61,347.18,364.22,347.16,379.84,347.16Z"/><path class="cls-3" d="M373.3,421.4a8.62,8.62,0,0,1,8.43-8.77c4.48-.12,8.92,4.15,8.87,8.53a9,9,0,0,1-8.76,8.87A8.62,8.62,0,0,1,373.3,421.4Z"/></g></g></svg>