<svg xmlns="http://www.w3.org/2000/svg" viewBox="0 0 512 487.68"><defs><style>.cls-1{fill:#020200;}.cls-2{fill:#fced01;}</style></defs><title>esdm</title><g id="Layer_2" data-name="Layer 2"><g id="Layer_1-2" data-name="Layer 1"><path class="cls-1" d="M512,177.92v19.2c-.13.13-.38.26-.38.4-.37,6.07-.9,12.11-1.73,18.14-.64,4.61-.89,9.29-1.79,13.84-1.5,7.56-2.91,15.15-4.53,22.69-2.55,11.9-5.66,23.63-9.07,35.3q-5.62,19.24-12.32,38.14-7.7,21.81-16.54,43.17c-4.17,10.06-8.48,20.07-13.1,29.93Q446.3,412,439.63,425.18c-6.5,12.83-13.46,25.39-20.71,37.8-1,1.66-1.43,4.09-3.87,4.49-3,.48-5.78,1.71-8.69,2.51-11.8,3.25-23.76,5.8-35.73,8.28-9.49,2-19.08,3.37-28.67,4.69-6.76.93-13.57,1.55-20.37,2.15-6.22.55-12.45,1.16-18.68,1.23-6,.07-12,.69-18,.53-5.09-.13-10.16.71-15.25.41-.34,0-.73-.06-.83.42H243.2c-.16-.6-.66-.4-1-.42-3.66-.14-7.33-.19-11-.33-8.25-.32-16.51-.5-24.76-.9-6-.29-11.89-.79-17.83-1.29-5.7-.48-11.4-1-17.07-1.75-6.33-.88-12.7-1.5-19-2.63-9.23-1.65-18.44-3.43-27.57-5.56-9.42-2.2-18.72-4.87-28.06-7.4a2.45,2.45,0,0,1-1.81-1.13C90,457.63,84.87,449,80.18,440.1c-4.36-8.26-8.72-16.53-12.79-24.95-2.84-5.88-5.75-11.72-8.45-17.67q-8.43-18.53-16.12-37.39c-4.75-11.61-9.1-23.36-13.32-35.16-3.28-9.16-6.34-18.41-9-27.77-2.2-7.64-4.79-15.17-6.73-22.87-3.1-12.27-6.1-24.57-8.29-37.07-1.4-8-2.7-16-3.68-24a146.28,146.28,0,0,1-1.34-17.4c0-.34.06-.73-.42-.83V178.77c.13-.13.37-.26.38-.4.17-2.45.32-4.91.47-7.36a2.83,2.83,0,0,1,.51-2c5.6-6.53,10.89-13.35,16.81-19.58,6.72-7.07,13.33-14.25,20.56-20.87,6.14-5.62,12.08-11.45,18.35-16.93,4.7-4.11,9.29-8.35,14.1-12.32,6-4.92,12.14-9.56,18.15-14.42,8.74-7.06,17.83-13.65,27.08-20,11.41-7.82,23-15.42,34.9-22.46,10.08-5.95,20.28-11.67,30.74-16.89,6.94-3.47,14-6.65,21.15-9.71a250.52,250.52,0,0,1,42-13.77c3.17-.74,6.48-.84,9.53-2.11h2.56c.62.8,1.63.68,2.4.79a163.53,163.53,0,0,1,24.19,5.95,254.06,254.06,0,0,1,25.27,9.31c7.38,3.18,14.69,6.5,21.88,10,10.29,5.08,20.29,10.72,30.16,16.6q13.58,8.09,26.68,16.94,13.39,9.09,26.35,18.81c7.34,5.51,14.61,11.09,21.72,16.89,6.95,5.66,13.75,11.5,20.46,17.45,6.06,5.38,12,10.93,17.82,16.56q10.93,10.54,21.12,21.81c4.7,5.2,9.17,10.6,13.7,15.95a8.21,8.21,0,0,1,2.25,5.63C511.27,174.39,511.16,176.28,512,177.92ZM406,377.69c3.39,2.69,6.82,5.34,10.16,8.09.95.78,1.52.79,2.15-.25a5.2,5.2,0,0,1,.93-1.16c1.13-1,.89-1.73-.27-2.64-5.18-4.1-10.3-8.28-15.4-12.48-.84-.69-1.39-.77-2,.15a19.09,19.09,0,0,1-2.11,2.67c-1.27,1.24-1.31,2.25-.22,3.73,2.11,2.85,4,5.88,5.93,8.84l-.38.35c-2.33-.87-4.66-1.71-7-2.6-5.18-2-5.13-2-8.6,2.43-.8,1-.57,1.46.3,2.15,5.12,4.07,10.26,8.11,15.25,12.34,1.55,1.32,2.05.4,3-.56,1.08-1.13.81-1.79-.33-2.68-3.54-2.76-7-5.62-10.58-8.5a3.07,3.07,0,0,1,2.45.38c3.84,1.48,7.69,3,11.51,4.5,1,.39,1.61.48,2.37-.47s.54-1.55,0-2.41c-2.53-3.77-5-7.58-7.5-11.38ZM223.36,447.82l.34.29c-.82,4.46-1.61,8.93-2.49,13.38-.21,1.08,0,1.6,1.11,1.69a6.26,6.26,0,0,1,1.67.3c1.44.54,1.94.07,2.2-1.44.92-5.31,2-10.6,3-15.9.95-5,.92-4.93-4.16-6a2,2,0,0,0-2.65,1.22c-1.72,3.37-3.59,6.67-5.41,10a49,49,0,0,1-1.38-7.86c-.61-5.36-.61-5.32-6-6.33-1.14-.21-1.64-.13-1.87,1.15-1.22,6.63-2.47,13.26-3.84,19.86-.36,1.76.74,1.65,1.76,1.81s2,.93,2.29-1c.37-2.67,1-5.31,1.57-7.94.46-2,.55-4.18,1.52-6.56.65,5.27,1.22,10.06,1.85,14.85.11.86-.39,2,1.18,2.31s2.1-.55,2.69-1.67C218.94,455.91,221.16,451.87,223.36,447.82ZM186.44,290.54c.39.16.67-.08,1-.25q18.13-10.15,36.26-20.32c.5-.28,1.19-.42,1.43-1.23a52.66,52.66,0,0,0-6.26-2,49.79,49.79,0,0,1-9.07-3.44c-4.1-1.78-8.43-3-12.59-4.63-1.58-.61-2.14-.37-2.57,1.3-1.63,6.26-3.49,12.45-5.11,18.71-1,4-2.59,7.8-3,11.92l-.08.09Zm140,2.55.08.2s0-.11,0-.12a.54.54,0,0,0-.15-.05,3.6,3.6,0,0,0-.32-2.06c-1.14-4.1-2.29-8.2-3.42-12.3-1.76-6.36-3.49-12.72-5.29-19.07-.16-.57.06-1.84-1.29-1.36-4.94,1.76-10,3.32-14.78,5.41a58.86,58.86,0,0,1-8.91,3.16c-2.55.65-5,1.7-7.79,2.67.62.44.84.61,1.09.75,10.91,6.22,21.8,12.48,32.76,18.61C321.05,290.4,323.47,292.29,326.43,293.1Zm-30-107.81c.09.23.23.22.39.06l-.22-.2a17.3,17.3,0,0,0-.31-1.86q-3.43-12.43-6.9-24.85L285,142.68l-25.86,17.48c.49.38.76.62,1,.81,9.17,6.23,18.31,12.5,27.53,18.66C290.56,181.55,293.23,183.81,296.39,185.29Zm-155.1,86.33a63.68,63.68,0,0,1-2.69-13.41c-.15-1.42-.64-1.87-2.11-1.86q-23.36.08-46.72,0c-1.62,0-2,.45-2,2A165.11,165.11,0,0,0,91,290.78c7.78,38.5,26.72,70.52,56.5,96.07a163.3,163.3,0,0,0,60.31,32.58,170.31,170.31,0,0,0,44.33,6.73c1.58,0,2.23-.24,2.19-2-.14-5.26-.08-10.52,0-15.78,0-1.29-.36-1.7-1.68-1.71a110.92,110.92,0,0,1-33.47-5.77c-7.23-2.35-14.33-5.08-21.7-7-10.3-2.66-20.81-2.82-31.34-2.62A5.41,5.41,0,0,1,162.4,390c-3.72-3-7.55-5.81-11.2-8.87a60.57,60.57,0,0,1-7.12-6.81c1.07-.23,1.83-.41,2.6-.56,16.71-3.21,33.38-2.25,50,.65,10.27,1.79,20,5.59,29.76,8.93A67.94,67.94,0,0,0,252.88,387c1.14-.07,1.47-.42,1.42-1.5-.07-1.7-.08-3.41,0-5.12.05-1.16-.28-1.61-1.53-1.63-13.37-.13-26.18-3.1-38.72-7.54-8.84-3.13-17.72-6.15-27.12-7.22-8.64-1-17.32-.69-26-.53a61.5,61.5,0,0,0-21.89,4c-1.06.42-1.52,0-2.11-.72-3.22-4-6.41-8-9.75-11.85-1.25-1.45-1-2,.6-2.85,10.15-5.39,21.13-7.43,32.44-8A145.8,145.8,0,0,1,219.45,353c9.4,3.52,19,6.39,29.22,6.23,5.8-.09,5.77,0,5.63-5.92,0-1.17-.31-1.55-1.54-1.61-4.18-.2-8.38-.38-12.53-.89-9.43-1.16-18.48-3.89-27.41-7-9.13-3.21-18.31-6.21-28-7-7.95-.68-15.9-.41-23.86-.25a63.58,63.58,0,0,0-27.58,6.38c-3.11,1.56-6.17,3.21-9.23,4.88-.85.46-1.48.67-2.14-.32-2.49-3.72-5.16-7.32-7.32-11.25a1.42,1.42,0,0,1,.35-2.14,64.14,64.14,0,0,1,15.88-10.24,81.57,81.57,0,0,1,30-6.69c1.75-.08,1.87-.53,1.1-1.92-1.27-2.3-2.42-4.66-3.64-7-.4-.76-.65-1.31.38-1.88,6.91-3.8,13.76-7.7,20.69-11.46a5.34,5.34,0,0,0,2.91-3.59q4.43-16.46,9.08-32.87c.5-1.75.1-2.09-1.64-2.08-14.79.06-29.58.09-44.37,0-2.3,0-3.2.54-3.06,2.86a28.73,28.73,0,0,1-.34,4C141.74,266,141.52,268.82,141.29,271.62Zm223.05,102.7c-.43.57-.6.86-.83,1.1a143.46,143.46,0,0,1-15.65,13.77,8.66,8.66,0,0,1-6.17,2.13,105.48,105.48,0,0,0-42.95,6.13c-12.84,4.76-25.9,8.59-39.71,9.16-1.14,0-1.23.62-1.23,1.5q0,8.32,0,16.64c0,1,.19,1.36,1.32,1.33a158.84,158.84,0,0,0,22.69-2.14,167.77,167.77,0,0,0,122-90.53,169.5,169.5,0,0,0,17.69-74.84c0-1.78-.48-2.23-2.23-2.22-15.71.07-31.43,0-47.15,0-3.71,0-3.71,0-4.16,3.68a48.25,48.25,0,0,1-2.4,11.05c-.83-4.34-1.5-8.67-2.1-13-.15-1.09-.35-1.77-1.76-1.77q-19.95.08-39.89,0c-1.23,0-1.63.24-1.26,1.55q5.19,18.47,10.27,37a3.14,3.14,0,0,0,1.63,2.07c5.39,3,10.73,6.14,16.15,9.11,1.26.69,1.4,1.24.75,2.43-1.49,2.72-2.86,5.51-4.34,8.39,3.72.35,7.17.57,10.6,1,13.9,1.88,26.51,6.75,37.18,16.12a1.47,1.47,0,0,1,.48,2.1c-1.25,2.83-3.23,5.18-4.93,7.69-3.26,4.81-3.31,4.8-8.26,2a65.3,65.3,0,0,0-23.71-8.53,157,157,0,0,0-15.73-.91c-13.39-.46-26.53.75-39.25,5.32-12.44,4.48-25,8.7-38.29,9.78-1.74.14-4.13-.53-5,.79s-.14,3.44-.3,5.2.6,1.82,2,1.82a69.31,69.31,0,0,0,23.14-4.36c13.88-4.95,27.89-9.25,42.72-10.39,13-1,26-.9,38.8,2a70,70,0,0,1,16.29,6.17c.55.28,1.78.38.93,1.59a28.53,28.53,0,0,1-2.77,3.93,76.46,76.46,0,0,0-7,8.52,2.06,2.06,0,0,1-2.83.86,59.24,59.24,0,0,0-8.18-2.64c-6.28-1.37-12.69-1.51-19.09-1.57-9.17-.09-18.32-.21-27.38,1.74-7.81,1.68-15.29,4.35-22.8,6.95a109.92,109.92,0,0,1-31.41,6.45c-2,.09-2.55.82-2.36,2.66a21.12,21.12,0,0,1,0,4c-.14,1.54.48,1.86,1.93,1.89a58.34,58.34,0,0,0,21.52-3.76c17.37-6.4,35-11.11,53.7-11.49A136.87,136.87,0,0,1,364.35,374.32ZM177.84,184.6c.87.23,1.46.42,2.07.53,9.08,1.72,18.15,3.44,27.34,4.44,3.06.33,3.07.38,3.9-2.62,4.18-15.13,8.31-30.27,12.58-45.38.55-1.94-.08-2.21-1.7-2.46a194,194,0,0,1-60.42-19.24,2.05,2.05,0,0,0-2.49.18c-4.57,3.27-9,6.7-13.24,10.4a172.56,172.56,0,0,0-29,32.56c-1,1.41-.78,1.87.68,2.57,13.83,6.62,28.38,11.18,43.15,15.12a1.65,1.65,0,0,0,2-.65,69.59,69.59,0,0,1,7.28-7.47c7.16-6.58,15.08-11.85,24.66-14.18a26.36,26.36,0,0,1,10.21-.76C192.89,164,185.17,174,177.84,184.6Zm154.85,0c-3.23-3.59-5.93-7.15-9.94-9.39-2-1.14-4.08-1.42-5.88.35-.87.85-1.34.59-2-.13-1.93-2-3.89-3.95-5.92-5.83a1.45,1.45,0,0,1-.23-2.19c1.19-1.93,2.29-3.92,3.48-5.86,2.56-4.18,2.57-4.18,6.69-1.53,9.07,5.84,17.06,13,24.63,20.61a2.57,2.57,0,0,0,3,.87c2.23-.71,4.54-1.17,6.8-1.78a279,279,0,0,0,38.84-13.36c1.52-.66,1.77-1.21.78-2.67a170.6,170.6,0,0,0-42.19-43.27,2.27,2.27,0,0,0-2.86-.08,109.48,109.48,0,0,1-12.74,5.94A205,205,0,0,1,289.41,139c-1.33.21-1.6.5-1.22,1.85q6.6,23.6,13.05,47.23c.33,1.19.77,1.59,2,1.43C313,188.24,322.68,186.71,332.68,184.55ZM162.38,118a5.68,5.68,0,0,0,2.31,1.45,195.87,195.87,0,0,0,57.93,18c1.68.26,2.27-.05,2.73-1.75,3.21-12,6.55-24,9.85-36,.32-1.16.49-2.17,2.24-2.16,12.44.09,24.88.07,37.32,0a1.72,1.72,0,0,1,2,1.55c3.27,12.06,6.65,24.09,9.88,36.16.48,1.78,1.12,2.13,2.9,1.84a206.87,206.87,0,0,0,40.86-11,127.32,127.32,0,0,0,17-7.77C294.4,81.1,217.93,79.62,162.38,118ZM394.89,254.56c8.24,0,16.49,0,24.73,0,1.43,0,1.95-.26,1.87-1.88-.31-6.67-.88-13.31-1.86-19.92a168.81,168.81,0,0,0-22.52-62.5c-1.89-3.17-1.89-3.26-5.29-1.86a294.23,294.23,0,0,1-44.05,14.48c-1.36.32-1.55.67-.51,1.66a31.86,31.86,0,0,1,6.61,8.3c1.08,2.11,1.95,2.57,3.81,1.28,1.08-.75,1.83-.46,2.23.77,1,3.13,3.31,5.57,4.64,8.53.39.88.62,1.41-.48,2-1.63.87-1.92,2.22-1.49,4.12,3.26,14.35,6.29,28.74,5.87,43.58,0,1.64.94,1.41,1.93,1.41Zm-282,0h20.69c4.44,0,4.51,0,4.33-4.43a132.5,132.5,0,0,1,5.22-41,6.62,6.62,0,0,0-.93-6.26,2.09,2.09,0,0,1-.09-2.68c1.44-2.61,2.92-5.21,4.2-7.9.76-1.59,1.33-2.23,3.25-1.31,2.89,1.4,4.06,1,5.48-1s2.69-3.67,4-5.49,1.46-1.94-.81-2.54A240.41,240.41,0,0,1,116,166.78c-1.05-.5-1.5-.23-2,.65-1.28,2.21-2.67,4.36-3.94,6.59a168.66,168.66,0,0,0-22.19,78.35c-.07,1.75.37,2.27,2.19,2.24C97.67,254.5,105.28,254.56,112.89,254.56Zm331.92-89.13c-4.24-4.58-8.31-9.33-12.76-13.71-14-13.8-28.21-27.46-42.36-41.15-.91-.88-1-1.43-.14-2.41,3.8-4.42,7.5-8.92,11.26-13.36,2.16-2.55,2.16-2.51-.56-4.38q-26.58-18.33-53.15-36.69-19.64-13.57-39.27-27.15a1.82,1.82,0,0,0-2.71.09c-7.29,6.34-14.67,12.58-22,18.87-.65.56-1.51,1-1.82,2.07,4.14.94,7,4.29,11.08,5.15a21,21,0,0,1,3.86,1.13c9.09,3.85,18.15,7.76,27.22,11.65l38,16.28,26.36,11.33c-.08.65-.56.9-.92,1.22q-11.49,10.33-23,20.63c-1.85,1.66-1.88,1.66.21,2.88q38.53,22.55,77.08,45.08C442.49,163.72,443.7,164.72,444.81,165.43ZM64.9,164.54c1.12.46,1.84-.23,2.61-.67L115,136.11q15.82-9.25,31.66-18.48c1.15-.67,1.61-1.06.33-2.18q-8.44-7.35-16.71-14.88c-2.64-2.4-5.55-4.53-7.89-7.31a4.5,4.5,0,0,1,.52-.35c20.37-8.72,40.71-17.5,61.13-26.11,11.57-4.88,22.83-10.51,34.81-14.36,3.18-1,5.49-3.54,8.71-4.39.47-.12,1.18-.11,1.37-1-8.05-6.87-16.18-13.76-24.25-20.72-1.08-.93-1.64-.15-2.35.34L172,47.63Q140.56,69.32,109.14,91c-1.73,1.18-1.46,1.84-.32,3.15,4,4.57,7.78,9.25,11.72,13.83.9,1.05,1,1.67-.06,2.73q-18.36,17.67-36.62,35.44Zm102.78,90c7.61,0,15.22,0,22.82,0,1.45,0,2.09-.35,2.47-1.84q2.05-8.05,4.44-16c.45-1.51.19-2.22-1.17-3-9.31-5.32-18.55-10.77-27.87-16.09-3.64-2.08-7.65-1.79-11.62-1.28a3.36,3.36,0,0,0-1.76,1.11,24.61,24.61,0,0,0-4.74,7.28c-3.75,8.91-5.63,18.29-7.17,27.77-.26,1.62.09,2.07,1.77,2.06C152.46,254.51,160.07,254.56,167.68,254.56Zm173.61,0c6.47,0,12.93,0,19.4,0,1.66,0,2.25-.31,1.9-2.11-1.33-6.83-2.73-13.65-4.65-20.34a57.12,57.12,0,0,0-5.09-13.06c-1.9-3.27-4.63-4.06-7.85-2.22-9.74,5.56-19.47,11.14-29.24,16.65-1.17.66-1.6,1.28-1.21,2.65q2.41,8.28,4.63,16.61c.34,1.28.83,1.84,2.28,1.83C328.07,254.51,334.68,254.56,341.28,254.56ZM171.15,316.71a3.25,3.25,0,0,0,.66.26,147.54,147.54,0,0,1,49.88,9.81c9.9,3.72,20.07,6.2,30.8,5.34,1.31-.11,1.84-.29,1.82-1.76q-.12-9.59,0-19.18c0-1.6-.58-1.82-2-1.82q-33.57.06-67.13,0a4.16,4.16,0,0,0-2.26.4C179.1,312.07,175.24,314.32,171.15,316.71Zm164.76-.16c-3.84-2.27-7.69-4.54-11.53-6.82a3.38,3.38,0,0,0-1.85-.33q-31.44,0-62.88,0c-1.56,0-1.88.51-1.86,1.95.07,6.32.09,12.65,0,19,0,1.64.47,2,2,2,8.94,0,17.4-2.33,25.75-5.25a192.91,192.91,0,0,1,23-7C317.55,318.12,326.65,317.33,335.91,316.55Zm-83.56-99.07c-.46-.34-.73-.57-1-.75Q233,205.54,214.6,194.33c-1.4-.86-1.71-.37-2.06.92q-3.72,13.66-7.56,27.29a2,2,0,0,0,1.07,2.72q8.2,4.52,16.3,9.22a2.07,2.07,0,0,0,2.48-.15c5.68-3.5,11.39-7,17.08-10.43C245.36,221.79,248.79,219.67,252.34,217.48Zm7.27-.21c.17.24.23.39.34.46,8.74,5.32,17.48,10.62,26.2,16a1.78,1.78,0,0,0,2.12-.18c5.81-3.3,11.6-6.62,17.45-9.83,1.31-.72,1.34-1.48,1-2.72-2.19-7.79-4.32-15.6-6.48-23.4-.39-1.39-.85-2.76-1.34-4.32Zm-89-17.86c0,2.89-.19,5.49,2.44,7q13.31,7.63,26.63,15.24c1.19.68,1.73.61,2.13-.89,2.44-9.12,5-18.23,7.51-27.32.37-1.33.2-1.83-1.32-2-10-1.14-20-2.84-29.84-4.91a1.76,1.76,0,0,0-2.21,1.05q-1.81,3.26-3.78,6.42C171.09,195.79,170.27,197.63,170.66,199.41ZM191,305.77h.76q30.36,0,60.72,0c1.61,0,1.82-.61,1.81-2-.06-7-.08-14.06,0-21.09,0-1.85-.24-2.29-2.15-1.6-16.67,6.05-33.4,12-50.06,18C198.07,300.63,194.63,303.28,191,305.77Zm125.87,0,.11-.51c-5.38-3.14-10.48-7-16.21-9.26-13.58-5.38-27.47-10-41.22-15-1.48-.53-1.8-.23-1.78,1.28.06,7,.1,13.92,0,20.88,0,2,.39,2.63,2.52,2.62,18.26-.09,36.51-.05,54.77-.05Zm24-105.65c0-2.42.17-4.41-1-6.06-1.6-2.26-3.4-4.38-5-6.63a2.27,2.27,0,0,0-2.7-1c-9.37,2-18.85,3.45-28.36,4.68-1.45.19-1.53.71-1.19,1.93,2.44,8.68,4.86,17.36,7.18,26.07.45,1.7,1,1.72,2.37.9,8.34-4.86,16.67-9.74,25.15-14.35C340,204.25,341.58,202.73,340.9,200.12ZM227,143l-11.76,42.5,37.29-25.28Zm27.25,20.45-39.36,26.66a2.84,2.84,0,0,0,2.1.61c4.81.4,9.63.76,14.44,1.15,7,.58,14,.62,21.07.94,1.42.06,1.81-.4,1.77-1.79-.09-4,0-8,0-11.94C254.28,174,254.28,169,254.28,163.43Zm42,27,.11-.48-38.6-26.13c0,9.59,0,18.66,0,27.74,0,1.34.74,1.26,1.66,1.22,6.45-.29,12.91-.46,19.35-.87C284.65,191.51,290.48,190.9,296.31,190.39Zm-42.16,62.1V220.63l-27,16.5Zm29.37-16.23c-8.31-5-16.32-9.88-24.3-14.77-1.52-.93-1.4,0-1.4,1,0,8.73,0,17.46,0,26.18a2.17,2.17,0,0,0,.37,1.79Zm-63.9-43.52-.08.48,34.74,21.06c0-6.46-.05-12.43,0-18.4,0-1.52-.72-1.54-1.82-1.54-8,0-15.91-.33-23.84-1C225.64,193.11,222.63,192.94,219.62,192.74Zm73.64-.29c-11.81,1.17-23,1.82-34.17,2-1.32,0-1.27.74-1.27,1.64,0,5.25,0,10.51,0,15.76,0,.6-.34,1.42.26,1.77s1.14-.36,1.66-.67q11.64-7.07,23.26-14.18C286.25,196.8,289.47,194.79,293.25,192.45Zm-19.32-89.81c-4.74,3.87-9.22,7.57-13.77,11.18-1.18.94-1.32,1.41-.05,2.45,6.16,5,12.23,10.14,18.34,15.22,1.33,1.1,2.69,2.17,4.43,3.57Zm-44.24,31.67,9-7.37c4.38-3.6,8.78-7.19,13.14-10.82.47-.39,1.65-.74.48-1.7-4.64-3.83-9.27-7.68-13.94-11.56C237.51,104.75,230,132,229.69,134.31Zm19.37,319c2.41-1.71,3.32-3.92,2.61-6.6a5.85,5.85,0,0,0-5.62-4.46c-3.18-.27-6.38-.3-9.57-.49-.91-.05-1.24.22-1.26,1.16q-.26,10.22-.6,20.44c0,1,.1,1.6,1.32,1.6,3.41,0,6.82.17,10.23.14a5.51,5.51,0,0,0,5.19-3.11C253,458.7,252.43,456.23,249.06,453.27ZM63,337.33c2.34-2.1,4.58-4.06,6.75-6.08a1.52,1.52,0,0,1,2.19-.17c2.92,1.81,5.71,1.56,8.42-.65,2.42-2,2.66-4.64,1.83-7.37-1-3.25-2.28-6.41-3.42-9.61-.27-.76-.54-1.16-1.53-.81-6.53,2.35-13.11,4.55-19.52,7.21-.44.18-1.1.25-.85.95.45,1.26.74,2.72,1.59,3.64.54.58,1.78-.42,2.71-.69s1.89-.6,2.83-.92c3.06-1,3-1,4.09,2.06a1.65,1.65,0,0,1-.55,2.19c-1.07.82-2.05,1.74-3.08,2.62C60.93,332.69,60.93,332.69,63,337.33ZM438.41,299a6.87,6.87,0,0,0-7,5.34c-.89,3.07-1.6,6.18-2.5,9.25-.38,1.29.05,1.72,1.26,2,6.39,1.64,12.77,3.33,19.12,5.09,1.29.36,1.85.11,2-1.18a7.22,7.22,0,0,1,.42-1.65c.52-1.3-.08-1.77-1.27-2a49.74,49.74,0,0,1-4.93-1.33c-.73-.24-2.31.07-1.84-1.36s-.33-3.85,2.4-4c2.26-.16,4.52-.45,6.79-.57,1-.05,1.58-.36,1.76-1.39a16.06,16.06,0,0,1,.58-2.27c.41-1.26,0-1.64-1.29-1.45-2.53.38-5.07.61-7.6,1-.93.14-1.39,0-1.71-1C443.56,300.27,441,299.26,438.41,299Zm-9,49.72-.08.4c-4.07.25-8.14.77-12.2.66-2.88-.08-4.2,1.15-5.19,3.55-.44,1.06-.32,1.42.65,1.9,6,3,12.06,6,18,9.2,1.71.91,1.86-.3,2.4-1.24s1-1.9-.59-2.62c-2.86-1.25-5.61-2.74-8.4-4.15a8.72,8.72,0,0,1-2.93-1.83c4.75-.29,9.21-.75,13.67-.76a4.31,4.31,0,0,0,4.53-2.88c.57-1.26.31-1.67-.8-2.22-5.84-2.92-11.68-5.85-17.45-8.9-1.48-.78-2-.43-2.66.95s-.77,2.11.87,2.85C422.72,345.15,426.06,347,429.45,348.68ZM58.53,285.2l-.23-.58c2.64-1.86,5.39-3.6,7.9-5.63,2.18-1.76,5.69-2.82,4.26-7-.37-1.08-.54-1.49-1.76-1.36q-10,1.11-19.92,2c-1.2.11-1.73.49-1.37,1.68.31,1-.42,2.83,1.83,2.51,2-.27,3.95-.51,5.93-.66,2.18-.16,4.34-.74,7-.47-4,2.91-7.5,5.64-11.19,8.14-1.82,1.23-2.52,2.52-2.05,4.71.26,1.21.51,1.7,1.82,1.56q9.95-1.1,19.91-2.07c2.26-.22,1-1.7,1.11-2.68.12-1.14-.26-1.62-1.59-1.45C66.29,284.45,62.4,284.79,58.53,285.2Zm240,175.36c0-.14.07-.31,0-.41-1.5-2.49-3-5-4.53-7.46-.44-.72-.68-1.19.09-2a6.56,6.56,0,0,0,1.18-8.16c-1.29-2.54-3.95-3.83-7.2-3.35s-6.59,1.09-9.89,1.59c-1,.15-1.32.45-1.12,1.52q1.88,10.16,3.62,20.35c.16.92.53,1.23,1.42,1a10,10,0,0,1,1.89-.31c1.29-.06,1.75-.58,1.43-1.9s-.51-2.79-.74-4.2c-.53-3.2-.5-3.11,2.6-3.83a1.84,1.84,0,0,1,2.49,1.15c.52,1.08,1.29,2,1.89,3.09,2.71,4.78.95,4,6.5,3.09A1.31,1.31,0,0,0,298.57,460.55ZM138.81,412.88l.55.19c-.35,4.38-.54,8.78-1.1,13.13-.31,2.38.35,3.83,2.41,5,1,.54,1.36.51,2-.4,3.75-5.44,7.51-10.87,11.38-16.22,1-1.37.7-2-.6-2.75-1.15-.69-1.82-1.2-2.8.38-2,3.22-4.29,6.26-6.46,9.38a64.69,64.69,0,0,1,.62-12.33c.43-2.64-.45-4.06-2.59-5.3-1.07-.62-1.55-.78-2.32.37-3.68,5.4-7.35,10.81-11.25,16.05-1.49,2,.19,2.26,1.09,3.12,1.27,1.22,1.64,0,2.17-.76Q135.35,417.81,138.81,412.88Zm193.56,30.19a13,13,0,0,0-1.63-6.31c-1.71-3.58-6.75-7.64-12.42-5.71-2.48.84-5,1.73-7.45,2.54-.88.28-1,.67-.73,1.54q3.41,9.73,6.71,19.51c.34,1,.77,1.12,1.71.77,2-.73,4.08-1.23,6.06-2C329.73,451.43,332.32,447.9,332.37,443.07ZM105.28,396.46c5,.62,11-4.73,12.07-9.43a9.12,9.12,0,0,0-1.3-7.74c-1.81-2.46-3.91-4.69-5.87-7-.48-.58-.83-.77-1.52-.16q-7.91,7-15.9,13.87c-.59.51-.74.86-.11,1.52,1.87,1.95,3.61,4,5.47,6A8.65,8.65,0,0,0,105.28,396.46Zm-31-40.91a6.53,6.53,0,0,1-.8.93c-1.16.89-.49,1.77,0,2.59.62,1,1.26.11,1.8-.15,2.74-1.35,5.43-2.8,8.17-4.15.9-.44,1.1-.88.6-1.8-1.06-1.93-2-3.92-3-5.87-.23-.45-.32-1-1.2-.83-2.52.62-3,1.56-1.94,3.82a5.31,5.31,0,0,0,.28.57c.64,1,.22,1.4-.81,1.5a3.84,3.84,0,0,1-4-1.78,4,4,0,0,1,.19-4.78,14.44,14.44,0,0,1,8.73-4.91,4.2,4.2,0,0,1,4.59,2c.85,1.37,1.17,3.09,0,4.16-1.92,1.76-.63,2.78.33,4.15.79,1.11,1.31.85,2.09.06a9,9,0,0,0-2.75-14.16c-5.4-2.35-10.12-.44-14.21,2.91C66,345,67,352.53,74.28,355.55Zm180-236.8-24.07,19.82c8,.72,15.39,1.38,22.82,1.37.89,0,1.26-.27,1.26-1.21C254.26,132.22,254.28,125.72,254.28,118.74ZM170.37,447.08a6.8,6.8,0,0,0,6.9-4.66c1.08-2.82.46-4.85-2.22-7.35-1.45-1.35-2.92-2.69-4.34-4.08a1.89,1.89,0,0,1-.31-2.53,2.1,2.1,0,0,1,2.45-.84c1.77.51,3.31,1.3,3.66,3.4.14.84,3.4,2.41,4.16,1.89,1.11-.78.72-2,.33-3.08a10,10,0,0,0-6.67-6.1c-3.62-1.21-6.82-.09-8.64,3s-1.21,5.77,1.74,8.53c1.35,1.26,2.78,2.44,4,3.78a2.13,2.13,0,0,1-.65,3.64c-2.12.74-6.48-1.43-6.45-3.58s-1.18-2.39-2.72-2.88c-1.84-.58-2.16.11-2.15,1.74C159.54,442.52,165,447.13,170.37,447.08ZM257.82,119c0,6.87,0,13.18,0,19.49,0,1.34.6,1.53,1.68,1.46,4.39-.27,8.79-.49,13.18-.75a49.46,49.46,0,0,0,8.36-.94ZM309.64,256.8l-.12-.41c-10.16,0-20.32.15-30.47-.07-4.25-.1-6.88,2.64-10.47,4.34l10.13,5.84a3.56,3.56,0,0,0,2.82.44,85.23,85.23,0,0,0,10.15-3.67C297.63,261,303.65,258.94,309.64,256.8ZM58.21,250.63V251c-3.34,0-6.67,0-10,0-1,0-1.62.06-1.58,1.33.14,4.11.27,8.23.22,12.34,0,1.75,1,1.55,2,1.51s2.37.43,2.24-1.53c-.15-2.4-.12-4.82-.13-7.23,0-.58-.28-1.49.62-1.55A11.52,11.52,0,0,1,56,256c.79.27.24,1.81.31,2.78a20.67,20.67,0,0,1,.09,3.4c-.14,1.57.56,1.82,2,1.88,1.82.08,2.42-.59,2.2-2.31a17.43,17.43,0,0,1-.08-2.55c.08-4.36-.66-3.37,3.56-3.57,1.39-.07,1.67.47,1.62,1.72-.08,2.27.08,4.55-.06,6.81-.11,1.68.82,1.67,2,1.58s2.5.5,2.41-1.61c-.17-4-.19-7.95-.21-11.92,0-1.18-.37-1.59-1.6-1.56C64.88,250.68,61.55,250.63,58.21,250.63ZM459.32,279.2c.31-1.87-1.1-1.07-1.73-1-5.94,1-11.87,2.13-17.8,3.23-4.43.82-4.4.83-4.91,5.32a1.37,1.37,0,0,0,.87,1.65c6.57,3.18,13.13,6.41,19.7,9.61.39.19.81.64,1.25-.06.8-1.29.29-3.7-1-4.35-3.52-1.82-3.52-1.82-2.83-5.81A3.69,3.69,0,0,0,453,287c-.16-2.36.88-3.56,3.3-3.49,2.1.07,2.83-1.13,2.81-3A7.69,7.69,0,0,1,459.32,279.2ZM58.62,311.91c-.06-.29-.08-.36-.09-.43-.45-1.79-.92-3.57-1.34-5.37-.91-3.85-.89-3.8,3.06-4.57,1-.2,1.4.07,1.6,1,.37,1.73.82,3.45,1.23,5.18.15.61.16,1.22,1.1,1.25,2.45.08,3.28-.87,2.63-3.18-.21-.75-.45-1.5-.6-2.26-.66-3.37-.63-3.28,2.74-4.19,1.41-.38,1.69.12,1.93,1.3.47,2.29,1.19,4.54,1.62,6.84.35,1.91,1.55,1,2.41.83s2.35.08,1.87-1.77c-1.05-4-2-8-3-12-.24-1-.53-1.39-1.71-1.08-6.59,1.71-13.21,3.34-19.82,4.95-1,.23-1.28.55-1,1.58,1.07,4.12,2.08,8.26,3.08,12.4.22.9.65,1.21,1.49.82S58.27,313.32,58.62,311.91Zm390,16.18c-.57-1.12-2-1-2.91-1.57-.76-.45-1.12,0-1.39.71-.6,1.67-1.26,3.32-1.91,5-1.37,3.5-1.35,3.42-4.87,2.24-1.33-.45-1.43-1-.93-2.13.66-1.49,1.1-3.08,1.79-4.55.57-1.22.18-1.65-.95-2.2-1.83-.9-2.83-.64-3.22,1.47a12.3,12.3,0,0,1-.84,2.18c-1.28,3.22-1.25,3.16-4.49,1.95-1.2-.45-1.5-.91-1-2.13,1-2.21,1.71-4.52,2.66-6.74.85-2-.94-1.64-1.75-2.07s-1.69-1-2.25.59q-2,5.63-4.3,11.12c-.59,1.41-.12,1.79,1.09,2.24q9.26,3.49,18.47,7.13c1.15.45,1.58.21,2-.92,1.42-3.86,3-7.68,4.46-11.52ZM342.2,441.69c-.23-.74.15-1.28,1-1.64s1.79-.86,2.69-1.29c3.37-1.6,3.43-1.66,5.92,1,1,1.1,1.92,1.23,3.12.44a9.25,9.25,0,0,1,1.71-.86c1-.4.87-.85.22-1.52q-7.62-7.75-15.22-15.54c-.33-.34-.67-.91-1.23-.67a18.54,18.54,0,0,0-4.37,2.17c-.92.74-.05,2.13,0,3.21.13,1.41.4,2.81.59,4.22.69,5.07,1.37,10.14,2.09,15.2.07.48-.32,1.45.91,1.19,2.26-.49,3.14-1.7,2.83-4C342.44,443,342.33,442.44,342.2,441.69Zm-84.07,11.9c.18,3.4.46,6.8.51,10.21,0,1.48.68,1.61,1.82,1.54,4-.25,7.93-.55,11.91-.65,2.17-.05,1.32-1.53,1.46-2.54.17-1.19-.18-1.87-1.6-1.74-2.4.21-4.82.3-7.23.41-.6,0-1.42.3-1.53-.64-.16-1.4-.57-3-.14-4.2.37-1.06,2-.53,3.09-.64a27.46,27.46,0,0,1,3.4-.14c1.14,0,1.41-.49,1.44-1.55.05-2.56,0-2.65-2.54-2.45-.78.06-1.56.15-2.34.16-4.07,0-3.36,1-3.67-3.5-.09-1.25.34-1.59,1.52-1.62,2.27,0,4.54-.37,6.8-.32,1.79,0,1.7-.9,1.65-2.15s0-2.33-1.88-2.17q-5.94.52-11.9.68c-1.27,0-1.35.53-1.29,1.52C257.83,447.07,258,450.33,258.13,453.59ZM107.26,404a26.67,26.67,0,0,1,2.14,2,1.47,1.47,0,0,0,2.18.29c3.72-2.09,3.74-2.05,6.9.86a12,12,0,0,0,1.26,1.14c1.12.77,1.25,1.58.67,2.86-1.5,3.3-1.43,3.33,1.25,5.89.3.29.63.55,1.05.92,2.82-6.33,5.65-12.51,8.34-18.76,1.65-3.83,1.5-4-1.93-6.5a1.3,1.3,0,0,0-1.68-.21C120.82,396.28,114.16,400.07,107.26,404Zm285.42,9.18-19.37-12.47a1.18,1.18,0,0,0-1.51-.13c-3.42,2.11-3.77,3-2.41,6.68.07.2.13.41.2.61,2.14,5.63,4.27,11.27,6.46,16.89.18.47.06,1.45,1.05,1.25a3.33,3.33,0,0,0,2.2-4.11c-1.3-3.38-1.3-3.38,1.53-5.62a4.49,4.49,0,0,0,.68-.51c1.8-2.11,3.63-2.14,5.69-.31.57.5,1.37,1.39,2.41.48A16.62,16.62,0,0,0,392.68,413.18Zm-210.56,34.2c0,4.37,2.37,7,6.79,8,4.06.9,7.09-.56,8.68-4.25,2-4.57,3.25-9.39,5.05-14,.8-2-.71-1.92-1.76-2.46-1.46-.75-1.77.07-2.16,1.24-1.47,4.37-2.94,8.74-4.58,13-.89,2.34-2.27,2.81-4.56,2s-3-2.08-2.15-4.7q2.06-6.49,4.38-12.9c.48-1.34.23-2-1.15-2.25a6,6,0,0,1-1.41-.47c-1.14-.54-1.71-.32-2.12,1-1,3.25-2.21,6.44-3.32,9.66A27.93,27.93,0,0,0,182.12,447.38Zm20.63-191-.09.41,4.73,1.73c4.93,1.8,10,3.36,14.74,5.48,4.22,1.87,8.1,3.48,12.27,0a36.12,36.12,0,0,1,5-2.89c.44-.26,1.14-.29,1.13-1.16-2.32-1.07-4.21-3.44-6.88-3.49C223.33,256.28,213,256.39,202.75,256.39ZM254.28,157c0-5,0-9.52,0-14.06,0-1.25-.59-1.33-1.56-1.34q-8.19-.1-16.35-.84a32.2,32.2,0,0,0-6.52-.29Zm27.52-16.58c-7.41.44-14.62,1-21.86,1.1-1.34,0-2.3.1-2.16,1.92.17,2.19,0,4.4,0,6.6s0,4.15,0,6.6Zm-1.94,113.65.14.37h32.84c-.06-.23-.06-.42-.14-.47-5-3.06-10.06-6.11-15.07-9.18a1.35,1.35,0,0,0-1.56,0Q288,249.49,279.86,254.09Zm66.57,164.47c1.84,1,3.61,2,5.46,2.8,5,2.24,9.69,4.71,11.89,10.17.78,1.93,1.79,2.18,3.63.93,1.66-1.12,2.14-1.91.75-3.53-.82-1-1.29-2.21-2.07-3.21a9.49,9.49,0,0,1-1.87-5.91c-.08-4-.39-7.9-.61-11.93-4.05,1.78-4.06,1.79-3.92,5.79,0,.42.07.85.08,1.27,0,1.53.91,3.76-.07,4.4s-2.85-.84-4-1.75c-3.26-2.51-6.14-2.07-9,.61C346.67,418.25,346.63,418.32,346.44,418.56ZM198.79,254.45h31.85c-.25-.31-.35-.5-.5-.59-4.82-2.86-9.64-5.69-14.45-8.56a1.63,1.63,0,0,0-1.94,0C208.95,248.25,204.12,251.19,198.79,254.45Zm258.12,17.69c3,.19,3,.19,3.25-2.85.24-2.83.43-5.66.62-8.5.22-3.24.21-3.21-3.15-3.13-.88,0-1.26.2-1.29,1.16-.07,2.13-.28,4.25-.39,6.38-.06,1.21-.24,1.88-1.85,1.71-4.45-.46-8.92-.65-13.39-1-3.73-.27-3.68-.29-3.82,3.36,0,1.21.31,1.56,1.52,1.62C444.59,271.26,450.75,271.72,456.91,272.13ZM427.35,372.28c0-.87-.78-1-1.27-1.33q-7.66-5-15.35-10c-2.49-1.61-2.44-1.56-4.17,1-.76,1.11-.78,1.65.46,2.43,5.29,3.31,10.48,6.78,15.77,10.09.73.46,1.49,2.16,2.71.61C426.2,374.2,426.75,373.2,427.35,372.28ZM99.72,357.46a18.26,18.26,0,0,1-1.22-1.94c-.69-1.46-1.38-1.68-2.85-.68-4.93,3.34-10,6.49-15,9.73-2.83,1.83-2.82,1.83-.8,4.59a1.24,1.24,0,0,1,.12.17c.41.83.94.87,1.7.37,5.75-3.78,11.51-7.52,17.26-11.29C99.29,358.19,99.78,358.06,99.72,357.46ZM315.06,251.24c-1.4-5-2.65-9.46-3.87-13.89-.18-.65-.35-1-1.12-.59-3.09,1.81-6.19,3.6-9.59,5.57ZM250.68,277.9c-2.18-.8-3.87-1.32-5.47-2a3.66,3.66,0,0,0-3.75.27c-5.36,3.19-10.79,6.25-16.16,9.42-1.16.68-2.59,1-3.26,2.58Zm-53.6-26.62,14.1-8.64-10.06-6Zm45.6-150.07-.17.43,11.77,9.71c0-3.31,0-6.14,0-9,0-.76-.18-1.2-1.06-1.19C249.71,101.23,246.19,101.21,242.68,101.21Zm26.8.43-.19-.43c-3.43,0-6.87,0-10.3,0-.78,0-1.18.24-1.17,1.08,0,2.8,0,5.6,0,8.88Zm13.38,183.94c-.21-.44-.23-.62-.33-.67L268,276.19a1.46,1.46,0,0,0-1.41-.14,28,28,0,0,0-4.79,2Zm-28.65-16.71-6.86,4,6.86,2.47Zm3.72,1.48c-.21,6.35-.66,5,4.1,3.48a6.24,6.24,0,0,0,.92-.51Z"/><path class="cls-2" d="M141.29,271.62c.22-2.8.44-5.6.68-8.41a28.73,28.73,0,0,0,.34-4c-.14-2.33.77-2.88,3.06-2.86,14.79.12,29.58.09,44.37,0,1.74,0,2.14.32,1.64,2.08q-4.64,16.41-9.08,32.87a5.34,5.34,0,0,1-2.91,3.59c-6.93,3.76-13.78,7.66-20.69,11.46-1,.57-.78,1.12-.38,1.88,1.22,2.33,2.37,4.69,3.64,7,.77,1.39.65,1.84-1.1,1.92a81.57,81.57,0,0,0-30,6.69A64.14,64.14,0,0,0,115,334.07a1.42,1.42,0,0,0-.35,2.14c2.16,3.94,4.83,7.53,7.32,11.25.66,1,1.28.78,2.14.32,3.06-1.66,6.12-3.32,9.23-4.88a63.58,63.58,0,0,1,27.58-6.38c8-.16,15.91-.44,23.86.25,9.72.83,18.9,3.83,28,7,8.93,3.13,18,5.86,27.41,7,4.15.51,8.35.7,12.53.89,1.24.06,1.52.43,1.54,1.61.13,5.91.16,5.83-5.63,5.92-10.23.16-19.82-2.7-29.22-6.23a145.8,145.8,0,0,0-59.22-8.92c-11.31.57-22.29,2.61-32.44,8-1.58.84-1.85,1.4-.6,2.85,3.34,3.88,6.53,7.88,9.75,11.85.59.73,1.05,1.14,2.11.72a61.5,61.5,0,0,1,21.89-4c8.67-.17,17.34-.46,26,.53,9.39,1.07,18.28,4.09,27.12,7.22,12.54,4.44,25.36,7.41,38.72,7.54,1.26,0,1.58.46,1.53,1.63-.08,1.7-.07,3.41,0,5.12,0,1.08-.29,1.43-1.42,1.5a67.94,67.94,0,0,1-26.43-3.67c-9.81-3.34-19.49-7.14-29.76-8.93-16.63-2.89-33.3-3.86-50-.65-.77.15-1.53.33-2.6.56a60.57,60.57,0,0,0,7.12,6.81c3.64,3.06,7.48,5.89,11.2,8.87a5.41,5.41,0,0,0,3.71,1.22c10.53-.2,21,0,31.34,2.62,7.37,1.91,14.47,4.64,21.7,7a110.92,110.92,0,0,0,33.47,5.77c1.32,0,1.7.42,1.68,1.71-.06,5.26-.11,10.53,0,15.78,0,1.8-.6,2.09-2.19,2a170.31,170.31,0,0,1-44.33-6.73,163.3,163.3,0,0,1-60.31-32.58C117.72,361.3,98.78,329.28,91,290.78a165.11,165.11,0,0,1-3.2-32.41c0-1.57.36-2,2-2q23.36.1,46.72,0c1.46,0,2,.44,2.11,1.86A63.68,63.68,0,0,0,141.29,271.62Z"/><path class="cls-2" d="M364.35,374.32a136.87,136.87,0,0,0-29.41-2.45c-18.67.37-36.33,5.09-53.7,11.49a58.34,58.34,0,0,1-21.52,3.76c-1.45,0-2.07-.35-1.93-1.89a21.12,21.12,0,0,0,0-4c-.19-1.84.33-2.57,2.36-2.66a109.92,109.92,0,0,0,31.41-6.45c7.51-2.6,15-5.27,22.8-6.95,9.06-1.95,18.22-1.83,27.38-1.74,6.4.06,12.81.2,19.09,1.57A59.24,59.24,0,0,1,369,367.6a2.06,2.06,0,0,0,2.83-.86,76.46,76.46,0,0,1,7-8.52,28.53,28.53,0,0,0,2.77-3.93c.85-1.21-.39-1.31-.93-1.59a70,70,0,0,0-16.29-6.17c-12.81-2.92-25.76-3-38.8-2-14.83,1.15-28.84,5.45-42.72,10.39a69.31,69.31,0,0,1-23.14,4.36c-1.38,0-2.12-.19-2-1.82s-.53-4,.3-5.2,3.29-.65,5-.79c13.32-1.08,25.85-5.3,38.29-9.78,12.72-4.58,25.86-5.79,39.25-5.32a157,157,0,0,1,15.73.91,65.3,65.3,0,0,1,23.71,8.53c5,2.84,5,2.85,8.26-2,1.71-2.52,3.68-4.86,4.93-7.69a1.47,1.47,0,0,0-.48-2.1c-10.67-9.37-23.28-14.24-37.18-16.12-3.43-.46-6.88-.68-10.6-1,1.48-2.89,2.85-5.67,4.34-8.39.65-1.19.51-1.74-.75-2.43-5.42-3-10.76-6.09-16.15-9.11a3.14,3.14,0,0,1-1.63-2.07q-5.1-18.49-10.27-37c-.37-1.32,0-1.56,1.26-1.55q19.95,0,39.89,0c1.41,0,1.6.67,1.76,1.77.61,4.33,1.27,8.65,2.1,13a48.25,48.25,0,0,0,2.4-11.05c.45-3.68.45-3.68,4.16-3.68,15.72,0,31.43,0,47.15,0,1.76,0,2.25.44,2.23,2.22a169.5,169.5,0,0,1-17.69,74.84,167.77,167.77,0,0,1-122,90.53,158.84,158.84,0,0,1-22.69,2.14c-1.12,0-1.32-.38-1.32-1.33q0-8.32,0-16.64c0-.88.1-1.45,1.23-1.5,13.8-.57,26.87-4.4,39.71-9.16a105.48,105.48,0,0,1,42.95-6.13,8.66,8.66,0,0,0,6.17-2.13,143.46,143.46,0,0,0,15.65-13.77C363.75,375.19,363.92,374.9,364.35,374.32Z"/><path class="cls-2" d="M177.84,184.6c7.34-10.64,15-20.58,27-27a26.36,26.36,0,0,0-10.21.76c-9.58,2.34-17.49,7.61-24.66,14.18a69.59,69.59,0,0,0-7.28,7.47,1.65,1.65,0,0,1-2,.65c-14.77-3.94-29.32-8.5-43.15-15.12-1.46-.7-1.65-1.15-.68-2.57a172.56,172.56,0,0,1,29-32.56c4.22-3.7,8.67-7.13,13.24-10.4a2.05,2.05,0,0,1,2.49-.18A194,194,0,0,0,222,139.12c1.62.24,2.25.51,1.7,2.46-4.27,15.1-8.4,30.25-12.58,45.38-.83,3-.84,3-3.9,2.62-9.19-1-18.27-2.72-27.34-4.44C179.3,185,178.7,184.83,177.84,184.6Z"/><path class="cls-2" d="M332.68,184.55c-10,2.16-19.68,3.69-29.41,4.93-1.27.16-1.71-.24-2-1.43q-6.46-23.63-13.05-47.23c-.38-1.34-.11-1.64,1.22-1.85a205,205,0,0,0,45.66-12.73,109.48,109.48,0,0,0,12.74-5.94,2.27,2.27,0,0,1,2.86.08,170.6,170.6,0,0,1,42.19,43.27c1,1.46.74,2-.78,2.67a279,279,0,0,1-38.84,13.36c-2.26.61-4.57,1.07-6.8,1.78a2.57,2.57,0,0,1-3-.87c-7.58-7.63-15.56-14.77-24.63-20.61-4.12-2.65-4.13-2.66-6.69,1.53-1.18,1.94-2.28,3.93-3.48,5.86a1.45,1.45,0,0,0,.23,2.19c2,1.88,4,3.84,5.92,5.83.71.73,1.17,1,2,.13,1.8-1.76,3.83-1.49,5.88-.35C326.75,177.4,329.46,181,332.68,184.55Z"/><path class="cls-2" d="M162.38,118c55.55-38.4,132-36.92,185,.39a127.32,127.32,0,0,1-17,7.77,206.87,206.87,0,0,1-40.86,11c-1.78.29-2.42-.06-2.9-1.84-3.23-12.07-6.61-24.1-9.88-36.16a1.72,1.72,0,0,0-2-1.55c-12.44,0-24.88.07-37.32,0-1.76,0-1.92,1-2.24,2.16-3.3,12-6.64,24-9.85,36-.45,1.7-1,2-2.73,1.75a195.87,195.87,0,0,1-57.93-18A5.68,5.68,0,0,1,162.38,118Z"/><path class="cls-2" d="M394.89,254.56H370.37c-1,0-2,.23-1.93-1.41.42-14.84-2.61-29.23-5.87-43.58-.43-1.9-.15-3.25,1.49-4.12,1.1-.59.87-1.11.48-2-1.33-3-3.61-5.41-4.64-8.53-.4-1.23-1.15-1.52-2.23-.77-1.86,1.29-2.74.83-3.81-1.28a31.86,31.86,0,0,0-6.61-8.3c-1-1-.85-1.34.51-1.66a294.23,294.23,0,0,0,44.05-14.48c3.4-1.4,3.4-1.31,5.29,1.86a168.81,168.81,0,0,1,22.52,62.5c1,6.61,1.54,13.25,1.86,19.92.08,1.62-.44,1.89-1.87,1.88C411.37,254.53,403.13,254.56,394.89,254.56Z"/><path class="cls-2" d="M112.89,254.56c-7.61,0-15.21-.06-22.82,0-1.81,0-2.25-.49-2.19-2.24A168.66,168.66,0,0,1,110.07,174c1.27-2.22,2.65-4.37,3.94-6.59.51-.88,1-1.15,2-.65a240.41,240.41,0,0,0,42.25,15.09c2.26.6,2.25.61.81,2.54s-2.73,3.64-4,5.49-2.6,2.43-5.48,1c-1.91-.93-2.49-.29-3.25,1.31-1.28,2.69-2.76,5.29-4.2,7.9a2.09,2.09,0,0,0,.09,2.68,6.62,6.62,0,0,1,.93,6.26,132.5,132.5,0,0,0-5.22,41c.18,4.43.12,4.43-4.33,4.43Z"/><path class="cls-2" d="M444.81,165.43c-1.11-.71-2.31-1.71-3.62-2.47q-38.55-22.52-77.08-45.08c-2.09-1.23-2.06-1.23-.21-2.88q11.52-10.3,23-20.63c.36-.32.84-.57.92-1.22L361.45,81.82l-38-16.28c-9.07-3.89-18.14-7.8-27.22-11.65a21,21,0,0,0-3.86-1.13c-4.07-.86-6.94-4.21-11.08-5.15.3-1.08,1.16-1.51,1.82-2.07,7.33-6.29,14.71-12.53,22-18.87a1.82,1.82,0,0,1,2.71-.09q19.62,13.6,39.27,27.15,26.57,18.35,53.15,36.69c2.72,1.87,2.71,1.83.56,4.38-3.76,4.45-7.46,8.95-11.26,13.36-.85,1-.77,1.53.14,2.41C403.84,124.26,418,137.93,432,151.73,436.5,156.1,440.57,160.85,444.81,165.43Z"/><path class="cls-2" d="M64.9,164.54l19-18.41q18.29-17.74,36.62-35.44c1.11-1.07,1-1.68.06-2.73-3.94-4.58-7.77-9.26-11.72-13.83-1.13-1.31-1.4-2,.32-3.15Q140.61,69.38,172,47.63l30.35-21c.71-.49,1.27-1.27,2.35-.34,8.07,7,16.2,13.85,24.25,20.72-.19.89-.91.88-1.37,1-3.21.85-5.53,3.37-8.71,4.39-12,3.84-23.25,9.48-34.81,14.36-20.41,8.61-40.76,17.4-61.13,26.11a4.5,4.5,0,0,0-.52.35c2.34,2.78,5.26,4.91,7.89,7.31q8.27,7.54,16.71,14.88c1.29,1.12.82,1.51-.33,2.18q-15.85,9.21-31.66,18.48L67.51,163.87C66.74,164.32,66,165,64.9,164.54Z"/><path class="cls-2" d="M167.68,254.56c-7.61,0-15.22,0-22.82,0-1.68,0-2-.43-1.77-2.06,1.54-9.48,3.42-18.86,7.17-27.77a24.61,24.61,0,0,1,4.74-7.28,3.36,3.36,0,0,1,1.76-1.11c4-.52,8-.8,11.62,1.28,9.31,5.32,18.55,10.77,27.87,16.09,1.36.78,1.62,1.49,1.17,3q-2.39,8-4.44,16c-.38,1.49-1,1.85-2.47,1.84C182.89,254.52,175.29,254.56,167.68,254.56Z"/><path class="cls-2" d="M341.28,254.56c-6.61,0-13.22,0-19.82,0-1.45,0-1.94-.54-2.28-1.83q-2.23-8.33-4.63-16.61c-.4-1.37,0-2,1.21-2.65,9.77-5.51,19.5-11.09,29.24-16.65,3.22-1.84,5.95-1.05,7.85,2.22a57.12,57.12,0,0,1,5.09,13.06c1.92,6.69,3.33,13.51,4.65,20.34.35,1.8-.24,2.13-1.9,2.11C354.22,254.51,347.75,254.56,341.28,254.56Z"/><path class="cls-2" d="M171.15,316.71c4.09-2.39,8-4.64,11.8-6.92a4.16,4.16,0,0,1,2.26-.4q33.57,0,67.13,0c1.39,0,2,.22,2,1.82q-.14,9.59,0,19.18c0,1.47-.51,1.65-1.82,1.76-10.74.86-20.9-1.63-30.8-5.34A147.54,147.54,0,0,0,171.8,317,3.25,3.25,0,0,1,171.15,316.71Z"/><path class="cls-2" d="M335.91,316.55c-9.26.78-18.36,1.57-27.33,3.5a192.91,192.91,0,0,0-23,7c-8.35,2.92-16.81,5.2-25.75,5.25-1.57,0-2.07-.36-2-2,.1-6.32.08-12.65,0-19,0-1.44.3-1.95,1.86-1.95q31.44.08,62.88,0a3.38,3.38,0,0,1,1.85.33C328.22,312,332.06,314.28,335.91,316.55Z"/><path class="cls-2" d="M252.34,217.48c-3.56,2.19-7,4.32-10.42,6.42-5.69,3.48-11.41,6.93-17.08,10.43a2.07,2.07,0,0,1-2.48.15q-8.1-4.7-16.3-9.22a2,2,0,0,1-1.07-2.72q3.86-13.62,7.56-27.29c.35-1.28.66-1.77,2.06-.92q18.33,11.25,36.73,22.39C251.62,216.9,251.88,217.13,252.34,217.48Z"/><path class="cls-2" d="M259.61,217.27l39.28-24c.49,1.56.95,2.93,1.34,4.32,2.16,7.8,4.29,15.61,6.48,23.4.35,1.24.32,2-1,2.72-5.86,3.21-11.65,6.53-17.45,9.83a1.78,1.78,0,0,1-2.12.18c-8.72-5.35-17.46-10.65-26.2-16C259.84,217.66,259.78,217.51,259.61,217.27Z"/><path class="cls-2" d="M170.66,199.41c-.38-1.78.44-3.62,1.55-5.41q2-3.16,3.78-6.42a1.76,1.76,0,0,1,2.21-1.05c9.88,2.07,19.82,3.77,29.84,4.91,1.52.17,1.69.67,1.32,2-2.55,9.09-5.07,18.2-7.51,27.32-.4,1.51-.95,1.57-2.13.89q-13.3-7.64-26.63-15.24C170.46,204.9,170.68,202.31,170.66,199.41Z"/><path class="cls-2" d="M191,305.77c3.62-2.49,7.06-5.14,11.09-6.61,16.66-6.07,33.39-12,50.06-18,1.91-.69,2.18-.25,2.15,1.6-.1,7-.07,14.06,0,21.09,0,1.37-.2,2-1.81,2q-30.36-.08-60.72,0Z"/><path class="cls-2" d="M316.89,305.77h-1.83c-18.26,0-36.51,0-54.77.05-2.13,0-2.55-.63-2.52-2.62.13-7,.08-13.92,0-20.88,0-1.51.31-1.81,1.78-1.28,13.75,5,27.63,9.58,41.22,15,5.73,2.27,10.83,6.13,16.21,9.26Z"/><path class="cls-2" d="M340.9,200.12c.68,2.61-.92,4.14-3.55,5.57-8.48,4.62-16.81,9.49-25.15,14.35-1.41.82-1.92.8-2.37-.9-2.32-8.71-4.74-17.39-7.18-26.07-.34-1.22-.26-1.74,1.19-1.93,9.5-1.24,19-2.64,28.36-4.68a2.27,2.27,0,0,1,2.7,1c1.61,2.25,3.41,4.37,5,6.63C341.07,195.71,340.9,197.7,340.9,200.12Z"/><path class="cls-2" d="M296.39,185.29c-3.16-1.49-5.83-3.75-8.71-5.67-9.22-6.16-18.36-12.43-27.53-18.66-.29-.2-.55-.43-1-.81L285,142.68l4.38,15.76q3.45,12.42,6.9,24.85a17.3,17.3,0,0,1,.31,1.86Z"/><path class="cls-2" d="M227,143l25.53,17.23-37.29,25.28Z"/><path class="cls-2" d="M326.43,293.1c-3-.81-5.38-2.69-8-4.16-11-6.13-21.85-12.39-32.76-18.61-.24-.14-.46-.32-1.09-.75,2.78-1,5.23-2,7.79-2.67a58.86,58.86,0,0,0,8.91-3.16c4.8-2.08,9.83-3.64,14.78-5.41,1.36-.48,1.13.79,1.29,1.36,1.8,6.35,3.53,12.71,5.29,19.07,1.13,4.1,2.29,8.2,3.42,12.3a3.6,3.6,0,0,1,.32,2.06Z"/><path class="cls-2" d="M254.28,163.43c0,5.57,0,10.6,0,15.63,0,4-.06,8,0,11.94,0,1.39-.35,1.86-1.77,1.79-7-.32-14.06-.37-21.07-.94-4.81-.4-9.63-.75-14.44-1.15a2.84,2.84,0,0,1-2.1-.61Z"/><path class="cls-2" d="M296.31,190.39c-5.83.5-11.66,1.11-17.5,1.48-6.44.4-12.9.58-19.35.87-.92,0-1.66.12-1.66-1.22,0-9.07,0-18.15,0-27.74l38.6,26.13Z"/><path class="cls-2" d="M186.48,290.58c.43-4.12,2-8,3-11.92,1.62-6.26,3.48-12.45,5.11-18.71.43-1.67,1-1.91,2.57-1.3,4.17,1.62,8.5,2.85,12.59,4.63a49.79,49.79,0,0,0,9.07,3.44,52.66,52.66,0,0,1,6.26,2c-.24.81-.93,1-1.43,1.23q-18.12,10.18-36.26,20.32c-.31.17-.59.41-1,.25Z"/><path class="cls-2" d="M254.15,252.5l-27-15.37,27-16.5Z"/><path class="cls-2" d="M283.51,236.27,258.2,250.49a2.17,2.17,0,0,1-.37-1.79c0-8.73,0-17.46,0-26.18,0-1-.12-1.94,1.4-1C267.19,226.39,275.2,231.22,283.51,236.27Z"/><path class="cls-2" d="M223.36,447.82c-2.2,4.05-4.42,8.1-6.58,12.17-.6,1.12-1.08,2-2.69,1.67s-1.07-1.45-1.18-2.31c-.63-4.78-1.2-9.58-1.85-14.85-1,2.38-1.05,4.52-1.52,6.56-.6,2.63-1.2,5.27-1.57,7.94-.26,1.9-1.35,1.13-2.29,1s-2.12,0-1.76-1.81c1.36-6.6,2.62-13.23,3.84-19.86.23-1.27.73-1.36,1.87-1.15,5.38,1,5.38,1,6,6.33a49,49,0,0,0,1.38,7.86c1.81-3.33,3.69-6.62,5.41-10a2,2,0,0,1,2.65-1.22c5.08,1.11,5.11,1.05,4.16,6-1,5.3-2.1,10.58-3,15.9-.26,1.51-.76,2-2.2,1.44a6.26,6.26,0,0,0-1.67-.3c-1.13-.09-1.32-.62-1.11-1.69.88-4.45,1.67-8.92,2.49-13.38a.61.61,0,0,0,.1-.85Z"/><path class="cls-2" d="M405.16,384.64c-2-3-3.82-6-5.93-8.84-1.09-1.48-1.06-2.5.22-3.73a19.09,19.09,0,0,0,2.11-2.67c.66-.92,1.21-.84,2-.15,5.1,4.2,10.22,8.38,15.4,12.48,1.16.92,1.4,1.62.27,2.64a5.2,5.2,0,0,0-.93,1.16c-.63,1-1.2,1-2.15.25-3.34-2.75-6.77-5.4-10.16-8.09-.27-.31-.6-.78-1-.31s.17.67.54.82c2.5,3.8,5,7.61,7.5,11.38.58.86.79,1.47,0,2.41s-1.41.85-2.37.47c-3.82-1.54-7.66-3-11.51-4.5a3.07,3.07,0,0,0-2.45-.38c3.58,2.89,7,5.75,10.58,8.5,1.14.89,1.41,1.55.33,2.68-.92,1-1.42,1.88-3,.56-5-4.23-10.13-8.27-15.25-12.34-.88-.7-1.11-1.13-.3-2.15,3.46-4.4,3.42-4.42,8.6-2.43,2.32.89,4.65,1.74,7,2.6l.49.15Z"/><path class="cls-2" d="M219.62,192.74c3,.2,6,.37,9,.62,7.94.66,15.88,1,23.84,1,1.1,0,1.84,0,1.82,1.54-.09,6,0,11.94,0,18.4l-34.74-21.06Z"/><path class="cls-2" d="M293.25,192.45c-3.78,2.33-7,4.34-10.24,6.33q-11.62,7.11-23.26,14.18c-.52.31-1,1-1.66.67s-.26-1.17-.26-1.77c0-5.25,0-10.51,0-15.76,0-.9-.06-1.61,1.27-1.64C270.27,194.27,281.44,193.62,293.25,192.45Z"/><path class="cls-2" d="M273.93,102.64l9,32.42c-1.74-1.4-3.1-2.47-4.43-3.57-6.11-5.08-12.18-10.2-18.34-15.22-1.27-1-1.13-1.51.05-2.45C264.71,110.21,269.19,106.51,273.93,102.64Z"/><path class="cls-2" d="M229.69,134.31c.31-2.33,7.82-29.56,8.67-31.45,4.67,3.87,9.3,7.72,13.94,11.56,1.17,1,0,1.31-.48,1.7-4.36,3.63-8.75,7.22-13.14,10.82Z"/><path class="cls-2" d="M249.06,453.27c3.37,3,4,5.43,2.3,8.69a5.51,5.51,0,0,1-5.19,3.11c-3.41,0-6.82-.14-10.23-.14-1.23,0-1.36-.6-1.32-1.6q.34-10.22.6-20.44c0-.94.35-1.22,1.26-1.16,3.19.19,6.39.22,9.57.49a5.85,5.85,0,0,1,5.62,4.46C252.38,449.35,251.47,451.56,249.06,453.27Zm-6.53,7.6v-.09a26.89,26.89,0,0,0,2.76,0c1.38-.14,1.87-1.23,2-2.39a2.31,2.31,0,0,0-1.56-2.53,8.5,8.5,0,0,0-5.82-.35c-1.19.45-.34,2.56-.57,3.9-.16.94.16,1.49,1.25,1.4A15.18,15.18,0,0,1,242.54,460.87Zm.46-9.49v0a11.89,11.89,0,0,0,1.91,0,2.65,2.65,0,0,0,1.94-3.89c-.72-1.22-5.61-2.22-6.73-1.37-.1.08-.24.21-.24.32,0,1.48-.38,3.06,0,4.4.32,1,1.87.41,2.87.58A1.28,1.28,0,0,0,243,451.39Z"/><path class="cls-2" d="M63,337.33c-2-4.64-2-4.63,1.46-7.62,1-.88,2-1.8,3.08-2.62a1.65,1.65,0,0,0,.55-2.19c-1.08-3.06-1-3.08-4.09-2.06-.94.31-1.88.64-2.83.92s-2.17,1.26-2.71.69c-.85-.92-1.14-2.38-1.59-3.64-.25-.7.41-.77.85-.95,6.41-2.66,13-4.86,19.52-7.21,1-.35,1.26,0,1.53.81,1.14,3.2,2.42,6.36,3.42,9.61.83,2.73.59,5.39-1.83,7.37-2.71,2.22-5.5,2.46-8.42.65a1.52,1.52,0,0,0-2.19.17C67.55,333.27,65.31,335.22,63,337.33ZM78.1,324.06c-.52-1.5-1.15-3.37-1.82-5.23-.14-.4-.49-.41-.88-.27-1.32.5-2.66,1-4,1.46a.66.66,0,0,0-.42,1c.62,1.58,1.14,3.2,1.86,4.73A2.43,2.43,0,0,0,75.92,327,2.82,2.82,0,0,0,78.1,324.06Z"/><path class="cls-2" d="M438.41,299c2.59.31,5.15,1.32,6.21,4.44.32,1,.78,1.14,1.71,1,2.53-.38,5.07-.62,7.6-1,1.29-.19,1.7.19,1.29,1.45a16.06,16.06,0,0,0-.58,2.27c-.18,1-.75,1.34-1.76,1.39-2.27.12-4.52.4-6.79.57-2.73.19-1.93,2.58-2.4,4s1.11,1.12,1.84,1.36a49.74,49.74,0,0,0,4.93,1.33c1.19.26,1.79.73,1.27,2a7.22,7.22,0,0,0-.42,1.65c-.19,1.29-.75,1.54-2,1.18-6.35-1.77-12.73-3.45-19.12-5.09-1.21-.31-1.64-.73-1.26-2,.9-3.06,1.61-6.18,2.5-9.25A6.87,6.87,0,0,1,438.41,299Zm2.29,8.47c.11-1.61-.47-2.81-2.13-3.19a2.61,2.61,0,0,0-3.32,1.91c-.48,1.41-.82,2.86-1.25,4.29-.2.68,0,1,.68,1.25,4.21,1.69,5,1.28,5.86-3.21C440.61,308.13,440.65,307.78,440.7,307.42Z"/><path class="cls-2" d="M429.45,348.68c-3.38-1.71-6.72-3.53-10.17-5.1-1.64-.74-1.57-1.44-.87-2.85s1.18-1.73,2.66-.95c5.77,3.05,11.61,6,17.45,8.9,1.11.55,1.37,1,.8,2.22a4.31,4.31,0,0,1-4.53,2.88c-4.46,0-8.92.47-13.67.76a8.72,8.72,0,0,0,2.93,1.83c2.78,1.42,5.54,2.9,8.4,4.15,1.64.72,1.2,1.56.59,2.62s-.68,2.15-2.4,1.24c-6-3.16-12-6.18-18-9.2-1-.49-1.09-.85-.65-1.9,1-2.4,2.32-3.62,5.19-3.55,4.06.11,8.14-.41,12.2-.66Z"/><path class="cls-2" d="M58.53,285.2c3.88-.4,7.76-.75,11.62-1.25,1.32-.17,1.7.31,1.59,1.45-.1,1,1.15,2.47-1.11,2.68q-10,.95-19.91,2.07c-1.31.15-1.57-.35-1.82-1.56-.47-2.19.23-3.48,2.05-4.71,3.7-2.49,7.23-5.23,11.19-8.14-2.65-.26-4.81.32-7,.47-2,.14-4,.38-5.93.66-2.25.31-1.52-1.48-1.83-2.51-.35-1.19.17-1.57,1.37-1.68q10-.92,19.92-2c1.22-.14,1.39.28,1.76,1.36,1.44,4.16-2.08,5.21-4.26,7-2.51,2-5.25,3.77-7.9,5.63Z"/><path class="cls-2" d="M298.57,460.56a1.32,1.32,0,0,1-.36.19c-5.55.89-3.78,1.68-6.5-3.09-.6-1-1.37-2-1.89-3.09a1.84,1.84,0,0,0-2.49-1.15c-3.11.72-3.13.63-2.6,3.83.23,1.4.4,2.82.74,4.2s-.15,1.84-1.43,1.9a10,10,0,0,0-1.89.31c-.89.22-1.26-.09-1.42-1q-1.76-10.18-3.62-20.35c-.2-1.07.16-1.37,1.12-1.52,3.3-.5,6.59-1.11,9.89-1.59s5.91.81,7.2,3.35a6.56,6.56,0,0,1-1.18,8.16c-.77.79-.54,1.26-.09,2,1.53,2.47,3,5,4.53,7.46C298.64,460.24,298.58,460.42,298.57,460.56Zm-10.78-17.21c-1.16.19-2.26.43-3.38.53-1.46.13-2,.54-1.65,2.23.85,4,.73,4,4.69,3.13.41-.09.81-.23,1.23-.32a2.61,2.61,0,0,0,2.3-3.21C290.73,443.8,289.31,443.47,287.79,443.35Z"/><path class="cls-2" d="M138.81,412.88q-3.47,4.92-6.93,9.84c-.53.75-.9,2-2.17.76-.9-.87-2.58-1.12-1.09-3.12,3.9-5.24,7.57-10.65,11.25-16.05.78-1.14,1.26-1,2.32-.37,2.13,1.24,3,2.65,2.59,5.3a64.69,64.69,0,0,0-.62,12.33c2.17-3.12,4.46-6.16,6.46-9.38,1-1.58,1.65-1.07,2.8-.38,1.31.79,1.6,1.38.6,2.75-3.87,5.35-7.63,10.78-11.38,16.22-.62.91-1,.94-2,.4-2.06-1.15-2.71-2.6-2.41-5,.56-4.35.75-8.75,1.1-13.13Z"/><path class="cls-2" d="M332.37,443.07c-.05,4.84-2.64,8.36-7.74,10.34-2,.77-4.06,1.26-6.06,2-.94.34-1.37.23-1.71-.77q-3.3-9.77-6.71-19.51c-.31-.88-.15-1.26.73-1.54,2.49-.81,5-1.69,7.45-2.54,5.66-1.92,10.71,2.13,12.42,5.71A13,13,0,0,1,332.37,443.07Zm-5.09.74a10.81,10.81,0,0,0-2.06-6.38c-2-2.92-5.65-3.46-8.72-1.49-.76.49-.43.95-.27,1.43q2,5.86,4,11.69c.17.5.26,1.13,1.12.93C324.69,449.19,327.24,447.35,327.28,443.8Z"/><path class="cls-2" d="M105.28,396.46a8.65,8.65,0,0,1-7.15-3c-1.86-2-3.6-4-5.47-6-.63-.66-.48-1,.11-1.52q8-6.91,15.9-13.87c.69-.61,1-.42,1.52.16,2,2.35,4.06,4.58,5.87,7a9.12,9.12,0,0,1,1.3,7.74C116.27,391.74,110.32,397.08,105.28,396.46Zm-.92-4.75c3,.12,6.76-2.4,8-5.17a6.44,6.44,0,0,0-2.25-8.27c-.57-.42-.87-.21-1.26.13q-4.89,4.26-9.79,8.51c-.46.39-.59.72-.16,1.23C100.41,389.94,101.94,391.73,104.36,391.71Z"/><path class="cls-2" d="M74.28,355.55c-7.27-3-8.25-10.56-2-15.71,4.09-3.36,8.82-5.26,14.21-2.91a9,9,0,0,1,2.75,14.16c-.78.79-1.3,1.06-2.09-.06-1-1.37-2.25-2.39-.33-4.15,1.17-1.07.85-2.79,0-4.16a4.2,4.2,0,0,0-4.59-2,14.44,14.44,0,0,0-8.73,4.91,4,4,0,0,0-.19,4.78,3.84,3.84,0,0,0,4,1.78c1-.1,1.45-.51.81-1.5a5.31,5.31,0,0,1-.28-.57c-1.1-2.27-.58-3.2,1.94-3.82.88-.22,1,.38,1.2.83,1,1.95,2,3.94,3,5.87.5.92.31,1.35-.6,1.8-2.74,1.35-5.43,2.79-8.17,4.15-.54.27-1.18,1.13-1.8.15-.51-.81-1.19-1.7,0-2.59A6.53,6.53,0,0,0,74.28,355.55Z"/><path class="cls-2" d="M254.28,118.74c0,7,0,13.48,0,20,0,.95-.37,1.21-1.26,1.21-7.43,0-14.82-.65-22.82-1.37Z"/><path class="cls-2" d="M170.37,447.08c-5.42.05-10.83-4.56-10.85-9.15,0-1.63.31-2.32,2.15-1.74,1.54.49,2.75.64,2.72,2.88s4.33,4.31,6.45,3.58a2.13,2.13,0,0,0,.65-3.64c-1.27-1.34-2.7-2.52-4-3.78-3-2.76-3.52-5.54-1.74-8.53s5-4.19,8.64-3a10,10,0,0,1,6.67,6.1c.38,1,.78,2.3-.33,3.08-.76.53-4-1-4.16-1.89-.35-2.1-1.89-2.89-3.66-3.4a2.1,2.1,0,0,0-2.45.84,1.89,1.89,0,0,0,.31,2.53c1.42,1.39,2.88,2.73,4.34,4.08,2.68,2.5,3.29,4.53,2.22,7.35A6.8,6.8,0,0,1,170.37,447.08Z"/><path class="cls-2" d="M257.82,119,281,138.24a49.46,49.46,0,0,1-8.36.94c-4.39.26-8.79.48-13.18.75-1.09.07-1.69-.12-1.68-1.46C257.85,132.16,257.82,125.85,257.82,119Z"/><path class="cls-2" d="M309.64,256.8c-6,2.14-12,4.18-18,6.46a85.23,85.23,0,0,1-10.15,3.67,3.56,3.56,0,0,1-2.82-.44l-10.13-5.84c3.59-1.7,6.22-4.43,10.47-4.34,10.15.23,20.31.07,30.47.07Z"/><path class="cls-2" d="M58.21,250.63c3.33,0,6.67.06,10,0,1.23,0,1.6.38,1.6,1.56,0,4,0,8,.21,11.92.09,2.11-1.32,1.52-2.41,1.61s-2.07.1-2-1.58c.15-2.26,0-4.54.06-6.81,0-1.24-.23-1.79-1.62-1.72-4.22.21-3.48-.79-3.56,3.57a17.43,17.43,0,0,0,.08,2.55c.22,1.73-.37,2.39-2.2,2.31-1.4-.06-2.11-.31-2-1.88a20.67,20.67,0,0,0-.09-3.4c-.07-1,.47-2.51-.31-2.78a11.52,11.52,0,0,0-4.41-.15c-.9.07-.62,1-.62,1.55,0,2.41,0,4.83.13,7.23.13,2-1.19,1.49-2.24,1.53s-2.07.24-2-1.51c0-4.11-.08-8.23-.22-12.34,0-1.27.61-1.34,1.58-1.33,3.34,0,6.67,0,10,0Z"/><path class="cls-2" d="M459.32,279.2a7.69,7.69,0,0,0-.19,1.26c0,1.92-.7,3.11-2.81,3-2.41-.08-3.46,1.13-3.3,3.49a3.69,3.69,0,0,1-.15.84c-.69,4-.69,4,2.83,5.81,1.27.66,1.78,3.06,1,4.35-.43.7-.86.25-1.25.06-6.57-3.2-13.12-6.42-19.7-9.61a1.37,1.37,0,0,1-.87-1.65c.51-4.48.48-4.5,4.91-5.32,5.93-1.1,11.86-2.2,17.8-3.23C458.22,278.12,459.62,277.32,459.32,279.2Zm-18.56,7.15,4.32,2.19c3.66,1.84,3.61,1.83,3.86-2.39.07-1.18-.31-1.33-1.29-1.13C445.57,285.44,443.48,285.82,440.76,286.35Z"/><path class="cls-2" d="M58.62,311.91c-.35,1.41-1.86.89-2.82,1.34s-1.28.08-1.49-.82c-1-4.14-2-8.28-3.08-12.4-.27-1,.05-1.34,1-1.58,6.62-1.61,13.23-3.23,19.82-4.95,1.18-.31,1.47.1,1.71,1.08,1,4,2,8,3,12,.49,1.84-1,1.57-1.87,1.77s-2.06,1.08-2.41-.83c-.42-2.3-1.14-4.54-1.62-6.84-.24-1.18-.52-1.68-1.93-1.3-3.37.91-3.41.82-2.74,4.19.15.76.39,1.51.6,2.26.65,2.31-.19,3.26-2.63,3.18-.95,0-1-.64-1.1-1.25-.41-1.72-.86-3.44-1.23-5.18-.2-1-.57-1.22-1.6-1-3.95.76-4,.72-3.06,4.57.42,1.8.89,3.58,1.34,5.37C58.55,311.55,58.56,311.62,58.62,311.91Z"/><path class="cls-2" d="M448.64,328.09l-.29.78c-1.49,3.84-3,7.66-4.46,11.52-.42,1.13-.85,1.37-2,.92q-9.21-3.64-18.47-7.13c-1.21-.46-1.69-.84-1.09-2.24q2.32-5.49,4.3-11.12c.56-1.6,1.43-1,2.25-.59s2.6.1,1.75,2.07c-1,2.22-1.7,4.52-2.66,6.74-.53,1.22-.23,1.68,1,2.13,3.24,1.22,3.22,1.28,4.49-1.95a12.3,12.3,0,0,0,.84-2.18c.39-2.11,1.39-2.36,3.22-1.47,1.12.55,1.52,1,.95,2.2-.69,1.47-1.13,3.06-1.79,4.55-.51,1.14-.41,1.68.93,2.13,3.52,1.18,3.5,1.26,4.87-2.24.65-1.65,1.3-3.3,1.91-5,.26-.72.62-1.16,1.39-.71C446.69,327.09,448.07,327,448.64,328.09Z"/><path class="cls-2" d="M342.2,441.69c.13.75.24,1.31.31,1.87.32,2.32-.57,3.53-2.83,4-1.22.26-.84-.71-.91-1.19-.72-5.06-1.39-10.13-2.09-15.2-.19-1.41-.46-2.8-.59-4.22-.1-1.09-1-2.47,0-3.21a18.54,18.54,0,0,1,4.37-2.17c.56-.24.89.32,1.23.67q7.61,7.76,15.22,15.54c.65.66.78,1.12-.22,1.52a9.25,9.25,0,0,0-1.71.86c-1.19.79-2.07.67-3.12-.44-2.48-2.62-2.55-2.56-5.92-1-.9.43-1.78.9-2.69,1.29S342,441,342.2,441.69Zm-1.83-13.59,1,7.27c0,.36.16.83.6.64,1.3-.57,2.57-1.2,3.81-1.88.44-.24.11-.61-.14-.86Z"/><path class="cls-2" d="M258.13,453.59c-.16-3.26-.31-6.52-.51-9.78-.06-1,0-1.48,1.29-1.52q6-.17,11.9-.68c1.88-.17,1.83.87,1.88,2.17s.15,2.19-1.65,2.15c-2.26-.05-4.53.27-6.8.32-1.18,0-1.6.37-1.52,1.62.31,4.46-.4,3.54,3.67,3.5.78,0,1.56-.1,2.34-.16,2.54-.2,2.59-.1,2.54,2.45,0,1.06-.29,1.58-1.44,1.55a27.46,27.46,0,0,0-3.4.14c-1.08.11-2.72-.42-3.09.64-.43,1.24,0,2.79.14,4.2.11.94.93.67,1.53.64,2.41-.12,4.82-.2,7.23-.41,1.42-.13,1.77.56,1.6,1.74-.15,1,.71,2.49-1.46,2.54-4,.09-7.94.4-11.91.65-1.14.07-1.8-.06-1.82-1.54C258.6,460.4,258.32,457,258.13,453.59Z"/><path class="cls-2" d="M107.26,404c6.9-3.94,13.55-7.72,20.19-11.54a1.3,1.3,0,0,1,1.68.21c3.43,2.54,3.58,2.67,1.93,6.5-2.69,6.25-5.52,12.43-8.34,18.76-.43-.37-.75-.63-1.05-.92-2.68-2.56-2.76-2.59-1.25-5.89.59-1.28.45-2.09-.67-2.86a12,12,0,0,1-1.26-1.14c-3.16-2.91-3.18-2.95-6.9-.86a1.47,1.47,0,0,1-2.18-.29A26.67,26.67,0,0,0,107.26,404Zm15.66,1.42,3.28-7.71c-1.46.82-2.39,1.32-3.3,1.84C118.58,402.06,118.58,402.07,122.92,405.43Z"/><path class="cls-2" d="M392.68,413.18a16.62,16.62,0,0,1-3.06,2.77c-1,.91-1.84,0-2.41-.48-2.07-1.84-3.9-1.8-5.69.31a4.49,4.49,0,0,1-.68.51c-2.84,2.24-2.84,2.24-1.53,5.62a3.33,3.33,0,0,1-2.2,4.11c-1,.2-.87-.78-1.05-1.25-2.19-5.62-4.31-11.26-6.46-16.89-.08-.2-.13-.41-.2-.61-1.36-3.71-1-4.57,2.41-6.68a1.18,1.18,0,0,1,1.51.13ZM374.09,407l-.4.22c.47,1.23.93,2.47,1.41,3.7,1.53,4,1.51,4,4.64,1.14.77-.7.69-1-.12-1.53C377.76,409.41,375.93,408.21,374.09,407Z"/><path class="cls-2" d="M182.12,447.38a27.93,27.93,0,0,1,1.69-6.07c1.11-3.22,2.32-6.41,3.32-9.66.41-1.33,1-1.54,2.12-1a6,6,0,0,0,1.41.47c1.38.26,1.63.91,1.15,2.25q-2.31,6.41-4.38,12.9c-.83,2.62-.15,3.92,2.15,4.7s3.67.31,4.56-2c1.64-4.31,3.11-8.68,4.58-13,.39-1.17.7-2,2.16-1.24,1,.54,2.55.41,1.76,2.46-1.81,4.62-3.08,9.44-5.05,14-1.59,3.69-4.62,5.15-8.68,4.25C184.49,454.39,182.1,451.75,182.12,447.38Z"/><path class="cls-2" d="M202.75,256.39c10.29,0,20.58-.11,30.87.07,2.67,0,4.55,2.42,6.88,3.49,0,.88-.7.91-1.13,1.16a36.12,36.12,0,0,0-5,2.89c-4.18,3.48-8.06,1.87-12.27,0-4.78-2.12-9.82-3.68-14.74-5.48l-4.73-1.73Z"/><path class="cls-2" d="M254.28,157l-24.41-16.53a32.2,32.2,0,0,1,6.52.29q8.16.75,16.35.84c1,0,1.58.09,1.56,1.34C254.24,147.5,254.28,152,254.28,157Z"/><path class="cls-2" d="M281.8,140.44l-24,16.22c0-2.45,0-4.52,0-6.6s.13-4.41,0-6.6c-.14-1.82.82-1.9,2.16-1.92C267.18,141.46,274.39,140.88,281.8,140.44Z"/><path class="cls-2" d="M279.86,254.09q8.11-4.62,16.21-9.24a1.35,1.35,0,0,1,1.56,0c5,3.07,10.05,6.12,15.07,9.18.08,0,.07.24.14.47H280Z"/><path class="cls-2" d="M346.44,418.56c.2-.25.24-.31.29-.36,2.82-2.67,5.7-3.12,9-.61,1.17.9,3,2.44,4,1.75s.11-2.87.07-4.4c0-.42-.07-.85-.08-1.27-.13-4-.13-4,3.92-5.79.22,4,.53,8,.61,11.93a9.49,9.49,0,0,0,1.87,5.91c.78,1,1.25,2.26,2.07,3.21,1.39,1.62.91,2.41-.75,3.53-1.85,1.25-2.86,1-3.63-.93-2.2-5.46-6.93-7.93-11.89-10.17C350,420.52,348.28,419.51,346.44,418.56Z"/><path class="cls-2" d="M198.79,254.45c5.32-3.26,10.16-6.2,15-9.18a1.63,1.63,0,0,1,1.94,0c4.81,2.87,9.64,5.71,14.45,8.56.15.09.25.28.5.59Z"/><path class="cls-2" d="M456.91,272.13c-6.17-.42-12.33-.87-18.5-1.22-1.21-.07-1.56-.41-1.52-1.62.14-3.64.09-3.63,3.82-3.36,4.46.32,8.94.51,13.39,1,1.6.17,1.79-.5,1.85-1.71.11-2.13.32-4.25.39-6.38,0-1,.41-1.14,1.29-1.16,3.36-.08,3.37-.11,3.15,3.13-.19,2.83-.39,5.67-.62,8.5C459.91,272.32,459.89,272.32,456.91,272.13Z"/><path class="cls-2" d="M427.35,372.28c-.6.92-1.15,1.92-1.85,2.81-1.22,1.55-2-.15-2.71-.61-5.29-3.31-10.48-6.78-15.77-10.09-1.24-.78-1.22-1.32-.46-2.43,1.74-2.54,1.68-2.58,4.17-1q7.68,5,15.35,10C426.56,371.26,427.3,371.41,427.35,372.28Z"/><path class="cls-2" d="M99.72,357.46c.05.6-.43.74-.76,1-5.75,3.77-11.52,7.51-17.26,11.29-.76.5-1.29.46-1.7-.37a1.24,1.24,0,0,0-.12-.17c-2-2.76-2-2.76.8-4.59,5-3.23,10.05-6.38,15-9.73,1.47-1,2.15-.78,2.85.68A18.26,18.26,0,0,0,99.72,357.46Z"/><path class="cls-2" d="M315.06,251.24l-14.59-8.92c3.4-2,6.51-3.75,9.59-5.57.77-.45.95-.05,1.12.59C312.41,241.78,313.65,246.21,315.06,251.24Z"/><path class="cls-2" d="M250.68,277.9,222,288.13c.67-1.62,2.11-1.9,3.26-2.58,5.37-3.16,10.81-6.22,16.16-9.42a3.66,3.66,0,0,1,3.75-.27C246.81,276.58,248.5,277.1,250.68,277.9Z"/><path class="cls-2" d="M197.08,251.28l4-14.64,10.06,6Z"/><path class="cls-2" d="M242.68,101.21c3.51,0,7,0,10.54,0,.88,0,1.07.44,1.06,1.19,0,2.83,0,5.65,0,9l-11.77-9.71Z"/><path class="cls-2" d="M269.48,101.64l-11.66,9.52c0-3.28,0-6.08,0-8.88,0-.84.39-1.09,1.17-1.08,3.43,0,6.87,0,10.3,0Z"/><path class="cls-2" d="M282.86,285.58,261.76,278a28,28,0,0,1,4.79-2,1.46,1.46,0,0,1,1.41.14l14.57,8.72C282.63,285,282.65,285.15,282.86,285.58Z"/><path class="cls-2" d="M254.21,268.88v6.43l-6.86-2.47Z"/><path class="cls-2" d="M257.93,270.36l5,3a6.24,6.24,0,0,1-.92.51C257.27,275.35,257.72,276.71,257.93,270.36Z"/><path class="cls-2" d="M296.56,185.15l.22.2c-.16.15-.29.17-.39-.06Z"/><path class="cls-2" d="M186.44,290.54l-.05.13.08-.09Z"/><path class="cls-2" d="M326.39,293.13a.54.54,0,0,1,.15.05s0,.08,0,.12l-.08-.2Z"/><path class="cls-1" d="M223.36,447.82l.44-.56a.61.61,0,0,1-.1.85Z"/><path class="cls-1" d="M405.61,378.2c-.38-.15-.94-.31-.54-.82s.71,0,1,.31Z"/><path class="cls-1" d="M405.16,384.64l.1.5-.49-.15Z"/><path class="cls-1" d="M242.54,460.87a15.18,15.18,0,0,0-1.91-.07c-1.09.09-1.41-.46-1.25-1.4.23-1.35-.62-3.45.57-3.9a8.5,8.5,0,0,1,5.82.35,2.31,2.31,0,0,1,1.56,2.53c-.15,1.16-.64,2.25-2,2.39a26.89,26.89,0,0,1-2.76,0Z"/><path class="cls-1" d="M243,451.39a1.28,1.28,0,0,1-.21,0c-1-.17-2.55.43-2.87-.58-.42-1.34-.08-2.92,0-4.4,0-.11.13-.24.24-.32,1.11-.85,6,.15,6.73,1.37a2.65,2.65,0,0,1-1.94,3.89,11.89,11.89,0,0,1-1.91,0Z"/><path class="cls-1" d="M78.1,324.06a2.82,2.82,0,0,1-2.18,3,2.43,2.43,0,0,1-3.05-1.28c-.72-1.53-1.24-3.16-1.86-4.73a.66.66,0,0,1,.42-1c1.33-.49,2.66-1,4-1.46.38-.14.73-.13.88.27C76.95,320.69,77.58,322.56,78.1,324.06Z"/><path class="cls-1" d="M440.7,307.43c-.05.35-.08.71-.15,1.06-.86,4.49-1.65,4.9-5.86,3.21-.67-.27-.88-.58-.68-1.25.43-1.43.77-2.88,1.25-4.29a2.61,2.61,0,0,1,3.32-1.91C440.23,304.61,440.81,305.81,440.7,307.43Z"/><path class="cls-1" d="M287.79,443.35c1.52.12,2.94.45,3.17,2.36a2.61,2.61,0,0,1-2.3,3.21c-.41.09-.81.23-1.23.32-4,.85-3.84.82-4.69-3.13-.37-1.7.2-2.11,1.65-2.23C285.53,443.78,286.64,443.54,287.79,443.35Z"/><path class="cls-1" d="M327.28,443.81c0,3.55-2.59,5.38-6,6.18-.87.2-.95-.43-1.12-.93q-2-5.84-4-11.69c-.16-.48-.49-.94.27-1.43,3.08-2,6.67-1.43,8.72,1.49A10.79,10.79,0,0,1,327.28,443.81Z"/><path class="cls-1" d="M104.36,391.71c-2.42,0-4-1.77-5.48-3.58-.43-.51-.29-.84.16-1.23q4.91-4.24,9.79-8.51c.39-.34.69-.54,1.26-.13a6.44,6.44,0,0,1,2.25,8.27C111.12,389.31,107.35,391.83,104.36,391.71Z"/><path class="cls-1" d="M440.76,286.35c2.72-.52,4.81-.91,6.89-1.33,1-.2,1.36,0,1.29,1.13-.24,4.22-.19,4.23-3.86,2.39Z"/><path class="cls-1" d="M340.37,428.1l5.26,5.17c.25.25.58.62.14.86-1.24.68-2.51,1.31-3.81,1.88-.44.19-.55-.28-.6-.64Z"/><path class="cls-1" d="M122.92,405.43c-4.34-3.36-4.35-3.36,0-5.87.91-.53,1.84-1,3.3-1.84Z"/><path class="cls-1" d="M374.09,407c1.84,1.18,3.67,2.37,5.53,3.52.81.5.89.83.12,1.53-3.13,2.83-3.1,2.86-4.64-1.14-.47-1.23-.94-2.46-1.41-3.7Z"/></g></g></svg>